<svg id="Layer_1" viewBox="0 0 64 64" xmlns="http://www.w3.org/2000/svg" data-name="Layer 1" width="300" height="300" version="1.1" xmlns:xlink="http://www.w3.org/1999/xlink" xmlns:svgjs="http://svgjs.dev/svgjs"><g width="100%" height="100%" transform="matrix(1,0,0,1,0,0)"><g fill="#0e5952"><path d="m28 51c-1.31372.02521-1.31354 1.97498.00006 2 1.31354-.02545 1.31335-1.97473-.00006-2z" fill="#00bf63" fill-opacity="1" data-original-color="#0e5952ff" stroke="none" stroke-opacity="1"/><path d="m28 55c-1.31372.02521-1.31354 1.97498.00006 2 1.31354-.02545 1.31335-1.97473-.00006-2z" fill="#00bf63" fill-opacity="1" data-original-color="#0e5952ff" stroke="none" stroke-opacity="1"/><path d="m9 47c-1.65686 0-3 1.34314-3 3v4c0 1.65686 1.34314 3 3 3h8c1.65686 0 3-1.34314 3-3v-4c0-1.65686-1.34314-3-3-3zm8 7h-8c-.86926-.00336-.87366-1.32959.00006-1.33337-.00006 0 7.99994 0 7.99994 0 .86932.00336.87372 1.32953 0 1.33337zm.66669-3.33337c0 .36816-.29852.66669-.66669.66669h-8c-.36816 0-.66663-.29852-.66663-.66669s.29846-.66663.66663-.66663h8c.36816 0 .66669.29846.66669.66663z" fill="#00bf63" fill-opacity="1" data-original-color="#0e5952ff" stroke="none" stroke-opacity="1"/><path d="m57 57c1.3136-.02545 1.31342-1.97473-.00006-2-1.31366.02521-1.31348 1.97498.00006 2z" fill="#00bf63" fill-opacity="1" data-original-color="#0e5952ff" stroke="none" stroke-opacity="1"/><path d="m57 53c1.3136-.02545 1.31342-1.97473-.00006-2-1.31366.02521-1.31348 1.97498.00006 2z" fill="#00bf63" fill-opacity="1" data-original-color="#0e5952ff" stroke="none" stroke-opacity="1"/><path d="m56 31h-10.03998c.25671 3.2171-.70148 6.46631-2.45001 8.95996.08142.0813 5.25159.02399 5.48999.04004 1.46997 0 2.75-.81 3.44-2h7.56v17c0 2.20996-1.78998 4-4 4h-19c-2.21002 0-4-1.79004-4-4v-9.04004c-.65497.05493-1.34503.05493-2 0v9.04004c0 2.20996-1.78998 4-4 4h-19c-2.21002 0-4-1.79004-4-4v-17h7.56c.69 1.19 1.97003 2 3.44 2 .24805-.0166 5.39899.04218 5.48999-.04004-2.20325-3.0838-3.06189-7.43848-2.09998-11.25-.73663.24268-.26917-18.09827-.39001-18.70996h7.56c.69 1.19 1.97003 2 3.44 2h5c1.46997 0 2.75-.81 3.44-2h7.56v16.81c.46002 1.14001.77002 2.35999.90997 3.63.69-.97003 1.09003-2.16003 1.09003-3.44v-18c0-3.31-2.69-6-6-6h-19c-3.31 0-6 2.69-6 6v18c0 1.53998.58002 2.94 1.53998 4h-9.53998c-3.31 0-6 2.69-6 6v18c0 3.31 2.69 6 6 6h19c2.09003 0 3.92999-1.07001 5-2.69 1.07001 1.62 2.90997 2.69 5 2.69h19c3.31 0 6-2.69 6-6v-18c0-3.31-2.69-6-6-6zm-3 5v-3h3c1.85999 0 3.40997 1.27997 3.85999 3zm-15-31h3c1.85999 0 3.40997 1.27997 3.85999 3h-6.85999zm-16 0h3v3h-6.85999c.45001-1.72003 2-3 3.85999-3zm-14 28h3v3h-6.85999c.45001-1.72003 2-3 3.85999-3z" fill="#00bf63" fill-opacity="1" data-original-color="#0e5952ff" stroke="none" stroke-opacity="1"/><path d="m35 50v4c0 1.65686 1.34314 3 3 3h8c1.65686 0 3-1.34314 3-3v-4c0-1.65686-1.34314-3-3-3h-8c-1.65686 0-3 1.34314-3 3zm3 0h8c.86932.00336.87372 1.32947-.00006 1.33331h-7.99994c-.8692-.00336-.87366-1.32953 0-1.33331zm0 2.66663h8c.86932.00336.87372 1.32953-.00006 1.33337h-7.99994c-.86926-.00336-.87366-1.32959 0-1.33337z" fill="#00bf63" fill-opacity="1" data-original-color="#0e5952ff" stroke="none" stroke-opacity="1"/><path d="m23 19c-1.65997 0-3 1.33997-3 3v2.78998c1.57001-2.59998 3.96002-4.64996 6.81-5.78998z" fill="#00bf63" fill-opacity="1" data-original-color="#0e5952ff" stroke="none" stroke-opacity="1"/></g><path d="m21 32.03334c0-6.07513 4.92487-11 11-11 14.59129.5794 14.58713 21.42281-.00009 22.00002-6.07504-.00002-10.99991-4.92489-10.99991-11.00002z" fill="#ffffff" fill-opacity="1" data-original-color="#f2be22ff" stroke="none" stroke-opacity="1"/><path d="m32 44.03334c-6.61719 0-12-5.38281-12-12 .65863-15.91973 23.3438-15.9151 24.00002.00009-.00002 6.6171-5.38284 11.99991-12.00002 11.99991zm0-22c-5.51367 0-10 4.48633-10 10 .5498 13.26628 19.45222 13.26241 20.00002-.00008-.00002-5.5136-4.48635-9.99992-10.00002-9.99992z" fill="#00bf63" fill-opacity="1" data-original-color="#0e5952ff" stroke="none" stroke-opacity="1"/><path d="m31 36.03334c-.25586 0-.51172-.09766-.70703-.29297l-3-3c-.92031-.92773.48526-2.33536 1.4141-1.41402-.00004-.00005 2.29293 2.29292 2.29293 2.29292l5.29297-5.29297c.92701-.91963 2.33585.48458 1.41402 1.4141.00005-.00004-5.99995 5.99996-5.99995 5.99996-.19531.19531-.45117.29297-.70703.29297z" fill="#00bf63" fill-opacity="1" data-original-color="#0e5952ff" stroke="none" stroke-opacity="1"/></g></svg>