<svg id="Layer_1" viewBox="0 0 512 512" xmlns="http://www.w3.org/2000/svg" data-name="Layer 1" width="300" height="300" version="1.1" xmlns:xlink="http://www.w3.org/1999/xlink" xmlns:svgjs="http://svgjs.dev/svgjs"><g width="100%" height="100%" transform="matrix(1,0,0,1,0,0)"><g fill-rule="evenodd"><g><path d="m383.804 114.13c10.92 0 19.846 8.814 19.986 19.733 2.861 216.001 52.399 283.531 63.442 345.649 1.071 6.027-.429 11.644-4.361 16.336-3.932 4.693-9.201 7.152-15.323 7.152h-383.097c-6.122 0-11.391-2.459-15.323-7.152-3.932-4.692-5.432-10.31-4.361-16.336 11.043-62.118 60.586-129.647 63.442-345.649.144-10.917 9.068-19.733 19.987-19.733z" fill="#00bf63" fill-opacity="1" data-original-color="#fc685bff" stroke="none" stroke-opacity="1"/><path d="m383.804 114.13c10.92 0 19.846 8.814 19.987 19.734 2.861 216.001 52.4 283.531 63.442 345.649 1.071 6.027-.429 11.644-4.361 16.337s-9.201 7.152-15.323 7.152h-23.1c6.122 0 11.391-2.459 15.323-7.152s5.432-10.309 4.361-16.337c-11.042-62.117-60.581-129.647-63.442-345.649-.14-10.92-9.066-19.734-19.987-19.734z" fill="#02ac5a" fill-opacity="1" data-original-color="#f35244ff" stroke="none" stroke-opacity="1"/><path d="m451.198 424.175h-390.396c-7.071 20.826-13.003 38.285-16.035 55.337-1.071 6.027.429 11.645 4.361 16.337 3.932 4.693 9.201 7.152 15.323 7.152h383.097c6.122 0 11.391-2.459 15.323-7.152s5.432-10.309 4.361-16.337c-3.031-17.051-8.963-34.511-16.034-55.337z" fill="#02ac5a" fill-opacity="1" data-original-color="#f35244ff" stroke="none" stroke-opacity="1"/><path d="m451.199 424.175h-23.1c7.07 20.823 13.004 38.288 16.034 55.337 1.071 6.027-.429 11.644-4.361 16.337s-9.201 7.152-15.323 7.152h23.1c6.122 0 11.391-2.459 15.322-7.152 3.932-4.693 5.432-10.309 4.361-16.337-3.032-17.052-8.963-34.511-16.034-55.337z" fill="#009c51" fill-opacity="1" data-original-color="#eb423fff" stroke="none" stroke-opacity="1"/><path d="m311.704 180.189h33.111v-82.374c0-48.881-39.933-88.815-88.815-88.815s-88.816 39.933-88.816 88.815v82.374h33.111v-82.374c0-30.603 25.101-55.704 55.704-55.704s55.704 25.101 55.704 55.704v82.374z" fill="#ffffff" fill-opacity="1" data-original-color="#ffda2dff" stroke="none" stroke-opacity="1"/><path d="m311.704 180.189h11.55v-82.374c0-30.603-25.1-55.704-55.703-55.704-1.949 0-3.876.103-5.775.302 27.923 2.919 49.928 26.748 49.928 55.402zm-49.928-170.995c-46.213 2.997-83.041 41.68-83.041 88.621v82.374h-11.55v-82.374c0-48.882 39.934-88.815 88.816-88.815 1.941 0 3.865.07 5.775.194z" fill="#cac8c0" fill-opacity="1" data-original-color="#ffc700ff" stroke="none" stroke-opacity="1"/><path d="m153.422 189.428c-5.103 0-9.24-4.137-9.24-9.24s4.137-9.24 9.24-9.24h60.637c5.103 0 9.24 4.137 9.24 9.24s-4.137 9.24-9.24 9.24zm144.519 0c-5.103 0-9.24-4.137-9.24-9.24s4.137-9.24 9.24-9.24h60.637c5.103 0 9.24 4.137 9.24 9.24s-4.137 9.24-9.24 9.24z" fill="#282b2c" fill-opacity="1" data-original-color="#eff4f7ff" stroke="none" stroke-opacity="1"/><path d="m152.228 189.352c-4.539-.585-8.046-4.465-8.046-9.163 0-5.103 4.137-9.24 9.24-9.24h60.637c4.249 0 7.828 2.869 8.907 6.775-.391-.051-.789-.077-1.193-.077h-60.637c-5.103 0-9.24 4.137-9.24 9.24 0 .854.117 1.68.333 2.465zm144.519 0c-4.539-.585-8.046-4.465-8.046-9.163 0-5.103 4.137-9.24 9.24-9.24h60.637c4.249 0 7.828 2.869 8.907 6.775-.391-.051-.789-.077-1.193-.077h-60.637c-5.103 0-9.24 4.137-9.24 9.24 0 .854.117 1.68.333 2.465z" fill="#2f2c2c" fill-opacity="1" data-original-color="#e2e3e3ff" stroke="none" stroke-opacity="1"/></g><path d="m185.331 325.281c1.156-4.245 5.536-6.75 9.781-5.594s6.75 5.536 5.594 9.781l-6.824 24.954c-.381 1.679-1.306 3.248-2.745 4.419-2.171 1.765-4.989 2.199-7.469 1.406l-24.935-6.819c-4.246-1.156-6.75-5.536-5.594-9.781s5.536-6.75 9.781-5.594l5.197 1.421c-1.847-3.671-3.474-7.471-4.863-11.381-3.721-10.475-5.747-21.729-5.747-33.428 0-27.589 11.184-52.567 29.264-70.648 18.081-18.081 43.059-29.264 70.648-29.264s52.567 11.183 70.648 29.264 29.264 43.059 29.264 70.648-11.183 52.567-29.264 70.648-43.059 29.264-70.648 29.264c-4.418 0-8-3.582-8-8s3.582-8 8-8c23.172 0 44.151-9.392 59.335-24.577 15.185-15.185 24.577-36.163 24.577-59.335s-9.392-44.151-24.577-59.335-36.163-24.577-59.335-24.577-44.151 9.392-59.335 24.577-24.577 36.163-24.577 59.335c0 9.886 1.695 19.35 4.809 28.116 1.329 3.742 2.915 7.361 4.736 10.834l2.279-8.333z" fill="#282b2c" fill-opacity="1" data-original-color="#eff4f7ff" stroke="none" stroke-opacity="1"/><g><path d="m257.419 345.979c28.263 0 51.315-23.051 51.315-51.315s-23.052-51.315-51.315-51.315-51.315 23.051-51.315 51.315 23.052 51.315 51.315 51.315z" fill="#ffffff" fill-opacity="1" data-original-color="#ffda2dff" stroke="none" stroke-opacity="1"/><path d="m257.419 243.349c16.305 0 30.832 7.606 40.231 19.461-8.752-6.938-19.818-11.083-31.853-11.083-28.341 0-51.315 22.975-51.315 51.315 0 12.036 4.145 23.102 11.083 31.854-11.856-9.399-19.461-23.927-19.461-40.232 0-28.34 22.975-51.315 51.315-51.315z" fill="#cac8c0" fill-opacity="1" data-original-color="#ffc700ff" stroke="none" stroke-opacity="1"/><path d="m260.344 271.184c0-3.701 3.001-6.702 6.702-6.702s6.702 3.001 6.702 6.702v3.045c1.164.322 2.287.765 3.355 1.312 2.484 1.275 4.609 3.099 6.195 5.293 2.168 2.993 1.501 7.178-1.493 9.347-2.993 2.168-7.178 1.501-9.347-1.492-.395-.547-.887-.982-1.43-1.262-.513-.263-1.128-.412-1.813-.412h-3.364c-1.088 0-2.082.45-2.808 1.175-.725.725-1.175 1.72-1.175 2.808s.45 2.083 1.175 2.808 1.719 1.175 2.808 1.175h2.389c4.788 0 9.137 1.954 12.285 5.102s5.102 7.497 5.102 12.285-1.954 9.138-5.102 12.286c-1.884 1.883-4.197 3.339-6.777 4.205v3.324c0 3.701-3.001 6.702-6.702 6.702s-6.702-3.001-6.702-6.702v-3.045c-1.164-.322-2.287-.765-3.354-1.312-2.484-1.276-4.609-3.099-6.195-5.293-2.169-2.993-1.501-7.178 1.493-9.346 2.993-2.169 7.178-1.501 9.346 1.492.395.547.887.982 1.431 1.261.513.263 1.128.413 1.813.413h3.364c1.088 0 2.083-.45 2.808-1.175s1.175-1.72 1.175-2.808-.45-2.083-1.175-2.808-1.719-1.175-2.808-1.175h-2.389c-4.788 0-9.137-1.954-12.285-5.102-3.148-3.149-5.102-7.497-5.102-12.286s1.954-9.137 5.102-12.285c1.884-1.884 4.197-3.34 6.777-4.206v-3.324z" fill="#cac8c0" fill-opacity="1" data-original-color="#ffc700ff" stroke="none" stroke-opacity="1"/><path d="m250.717 264.165c0-3.702 3.001-6.702 6.702-6.702s6.702 3.001 6.702 6.702v3.045c1.164.322 2.287.764 3.354 1.312 2.484 1.276 4.609 3.099 6.195 5.293 2.169 2.993 1.501 7.178-1.492 9.346s-7.178 1.501-9.346-1.493c-.396-.547-.887-.982-1.43-1.261-.513-.263-1.128-.412-1.814-.412h-3.363c-1.088 0-2.083.45-2.808 1.175s-1.175 1.719-1.175 2.808.45 2.083 1.175 2.808 1.719 1.176 2.808 1.176h2.388c4.789 0 9.137 1.954 12.285 5.102s5.102 7.497 5.102 12.285-1.954 9.138-5.102 12.286c-1.883 1.884-4.197 3.34-6.777 4.206v3.324c0 3.701-3.001 6.702-6.702 6.702s-6.702-3.001-6.702-6.702v-3.045c-1.164-.322-2.287-.764-3.354-1.312-2.484-1.275-4.609-3.099-6.196-5.293-2.169-2.993-1.501-7.178 1.493-9.346 2.993-2.169 7.178-1.501 9.346 1.493.395.547.887.982 1.431 1.261.513.263 1.128.412 1.813.412h3.364c1.088 0 2.083-.45 2.808-1.175s1.175-1.719 1.175-2.808-.45-2.083-1.175-2.807c-.725-.725-1.719-1.175-2.808-1.175h-2.388c-4.789 0-9.137-1.954-12.285-5.102s-5.102-7.497-5.102-12.286 1.954-9.137 5.102-12.285c1.884-1.884 4.197-3.34 6.777-4.206v-3.324z" fill="#000000" fill-opacity="1" data-original-color="#fdb800ff" stroke="none" stroke-opacity="1"/></g></g></g></svg>