<svg id="Layer_1" viewBox="0 0 512 512" xmlns="http://www.w3.org/2000/svg" xmlns:xlink="http://www.w3.org/1999/xlink" data-name="Layer 1" width="300" height="300" version="1.1" xmlns:svgjs="http://svgjs.dev/svgjs"><g width="100%" height="100%" transform="matrix(1,0,0,1,0,0)"><linearGradient id="linear-gradient" gradientUnits="userSpaceOnUse" x1="256" x2="256" y1="500.561" y2="11.439"><stop offset="0" stop-color="#9345ff"/><stop offset="0" stop-color="#8f48ff"/><stop offset="0" stop-color="#8e4aff"/><stop offset=".124" stop-color="#6f63ff"/><stop offset=".312" stop-color="#4784ff"/><stop offset=".497" stop-color="#289fff"/><stop offset=".677" stop-color="#12b1ff"/><stop offset=".847" stop-color="#04bdff"/><stop offset="1" stop-color="#00c1ff"/></linearGradient><path d="m438.362 448.152v-157.421c0-7.53-6.161-13.69-13.69-13.69h-95.712v171.111h-14v-171.111h-51.959v171.111h-14v-171.111h-51.959v171.111h-14v-171.111h-95.712c-7.53 0-13.691 6.161-13.691 13.69v157.421h-38.197v-226.843h441.118v226.843h-38.197zm-38.897-104.923c-2.733-2.733-7.165-2.733-9.898 0l-38.735 38.735c-2.733 2.733-2.733 7.165 0 9.898s7.165 2.733 9.898 0l38.735-38.735c2.733-2.733 2.733-7.165 0-9.898zm-10.026 52.735 20.051-20.051c2.733-2.733 2.733-7.165 0-9.898s-7.165-2.733-9.898 0l-20.051 20.051c-2.733 2.733-2.733 7.165 0 9.898s7.165 2.733 9.898 0zm-238.295-52.735c-2.733-2.733-7.165-2.733-9.898 0l-38.735 38.735c-2.733 2.733-2.733 7.165 0 9.898s7.165 2.733 9.898 0l38.735-38.735c2.733-2.733 2.733-7.165 0-9.898zm-10.026 52.735 20.051-20.051c2.733-2.733 2.733-7.165 0-9.898s-7.165-2.733-9.898 0l-20.052 20.051c-2.733 2.733-2.733 7.165 0 9.898s7.165 2.733 9.898 0zm347.979-201.192v-17.789h-146.381c-10.058 12.655-22.827 23.053-37.428 30.327h171.27c6.895 0 12.539-5.644 12.539-12.538zm-122.412-84.305c-.391 19.081-5.607 36.978-14.484 52.516h73.462v-52.516zm-331.243 96.843h171.27c-14.6-7.274-27.37-17.673-37.427-30.327h-146.382v17.789c0 6.895 5.645 12.538 12.539 12.538zm390.222-110.843c6.896 0 12.538-5.642 12.538-12.539v-12.539h-77.747c2.809 7.981 4.731 16.379 5.647 25.077h59.562zm-339.328 0h59.563c.915-8.698 2.837-17.096 5.647-25.077h-77.748v12.539c0 6.895 5.642 12.539 12.539 12.539zm0 14v52.516h73.463c-8.877-15.538-14.093-33.435-14.484-52.516zm390.223 351.685h-441.118l-24.441 24.442v13.967h490v-13.967zm-248.208-99.424v13.737c0 3.866 3.134 7 7 7s7-3.134 7-7v-13.737c0-3.866-3.134-7-7-7s-7 3.134-7 7zm41.299 0v13.737c0 3.866 3.134 7 7 7s7-3.134 7-7v-13.737c0-3.866-3.134-7-7-7s-7 3.134-7 7zm-110.365-254.573c0-53.269 43.447-96.716 96.716-96.716s96.715 43.446 96.715 96.716-43.446 96.715-96.715 96.715-96.716-43.446-96.716-96.715zm37.273 15.847c0 2.904 2.369 5.273 5.273 5.273h33.049s0 33.049 0 33.049c0 2.904 2.369 5.273 5.273 5.273h31.694c2.904 0 5.273-2.369 5.273-5.273v-33.05s33.049 0 33.049 0c2.904 0 5.273-2.369 5.273-5.273v-31.694c0-2.904-2.369-5.273-5.273-5.273h-33.049v-33.049c0-2.904-2.369-5.274-5.273-5.274h-31.694c-2.904 0-5.273 2.369-5.273 5.274v33.049h-33.049c-2.904 0-5.273 2.369-5.273 5.273v31.694z" fill="#00bf63" fill-rule="evenodd" data-original-color="linear-gradient" stroke="none" stroke-opacity="1" fill-opacity="1"/></g></svg>