<svg xmlns="http://www.w3.org/2000/svg" version="1.1" xmlns:xlink="http://www.w3.org/1999/xlink" xmlns:svgjs="http://svgjs.dev/svgjs" width="1440" height="560" preserveAspectRatio="none" viewBox="0 0 1440 560"><g mask="url(&quot;#SvgjsMask1018&quot;)" fill="none"><rect width="1440" height="560" x="0" y="0" fill="rgba(34, 228, 89, 1)"></rect><path d="M66.33 91.39L131.29 128.89L131.29 203.89L66.33 241.39L1.38 203.89L1.38 128.89zM66.33 541.39L131.29 578.89L131.29 653.89L66.33 691.39L1.38 653.89L1.38 578.89zM196.24 91.39L261.19 128.89L261.19 203.89L196.24 241.39L131.29 203.89L131.29 128.89zM196.24 541.39L261.19 578.89L261.19 653.89L196.24 691.39L131.29 653.89L131.29 578.89zM261.19 -21.11L326.15 16.39L326.15 91.39L261.19 128.89L196.24 91.39L196.24 16.39zM326.15 91.39L391.1 128.89L391.1 203.89L326.15 241.39L261.19 203.89L261.19 128.89zM261.19 203.89L326.15 241.39L326.15 316.39L261.19 353.89L196.24 316.39L196.24 241.39zM456.06 91.39L521.01 128.89L521.01 203.89L456.06 241.39L391.1 203.89L391.1 128.89zM391.1 428.89L456.06 466.39L456.06 541.39L391.1 578.89L326.15 541.39L326.15 466.39zM456.06 541.39L521.01 578.89L521.01 653.89L456.06 691.39L391.1 653.89L391.1 578.89zM521.01 -21.11L585.96 16.39L585.96 91.39L521.01 128.89L456.06 91.39L456.06 16.39zM585.96 91.39L650.92 128.89L650.92 203.89L585.96 241.39L521.01 203.89L521.01 128.89zM521.01 203.89L585.96 241.39L585.96 316.39L521.01 353.89L456.06 316.39L456.06 241.39zM521.01 428.89L585.96 466.39L585.96 541.39L521.01 578.89L456.06 541.39L456.06 466.39zM585.96 541.39L650.92 578.89L650.92 653.89L585.96 691.39L521.01 653.89L521.01 578.89zM650.92 -21.11L715.87 16.39L715.87 91.39L650.92 128.89L585.96 91.39L585.96 16.39zM715.87 316.39L780.83 353.89L780.83 428.89L715.87 466.39L650.92 428.89L650.92 353.89zM845.78 91.39L910.73 128.89L910.73 203.89L845.78 241.39L780.82 203.89L780.82 128.89zM780.82 203.89L845.78 241.39L845.78 316.39L780.82 353.89L715.87 316.39L715.87 241.39zM845.78 316.39L910.73 353.89L910.73 428.89L845.78 466.39L780.82 428.89L780.82 353.89zM845.78 541.39L910.73 578.89L910.73 653.89L845.78 691.39L780.82 653.89L780.82 578.89zM1040.64 203.89L1105.59 241.39L1105.59 316.39L1040.64 353.89L975.69 316.39L975.69 241.39zM1105.59 316.39L1170.55 353.89L1170.55 428.89L1105.59 466.39L1040.64 428.89L1040.64 353.89zM1170.55 -21.11L1235.5 16.39L1235.5 91.39L1170.55 128.89L1105.59 91.39L1105.59 16.39zM1170.55 203.89L1235.5 241.39L1235.5 316.39L1170.55 353.89L1105.59 316.39L1105.59 241.39zM1235.5 316.39L1300.45 353.89L1300.45 428.89L1235.5 466.39L1170.55 428.89L1170.55 353.89zM1365.41 91.39L1430.36 128.89L1430.36 203.89L1365.41 241.39L1300.46 203.89L1300.46 128.89zM1300.46 428.89L1365.41 466.39L1365.41 541.39L1300.46 578.89L1235.5 541.39L1235.5 466.39z" stroke="rgba(8, 228, 29, 1)" stroke-width="2"></path><path d="M58.83 91.39 a7.5 7.5 0 1 0 15 0 a7.5 7.5 0 1 0 -15 0zM123.79 128.89 a7.5 7.5 0 1 0 15 0 a7.5 7.5 0 1 0 -15 0zM123.79 203.89 a7.5 7.5 0 1 0 15 0 a7.5 7.5 0 1 0 -15 0zM58.83 241.39 a7.5 7.5 0 1 0 15 0 a7.5 7.5 0 1 0 -15 0zM-6.12 203.89 a7.5 7.5 0 1 0 15 0 a7.5 7.5 0 1 0 -15 0zM-6.12 128.89 a7.5 7.5 0 1 0 15 0 a7.5 7.5 0 1 0 -15 0zM58.83 541.39 a7.5 7.5 0 1 0 15 0 a7.5 7.5 0 1 0 -15 0zM123.79 578.89 a7.5 7.5 0 1 0 15 0 a7.5 7.5 0 1 0 -15 0zM123.79 653.89 a7.5 7.5 0 1 0 15 0 a7.5 7.5 0 1 0 -15 0zM58.83 691.39 a7.5 7.5 0 1 0 15 0 a7.5 7.5 0 1 0 -15 0zM-6.12 653.89 a7.5 7.5 0 1 0 15 0 a7.5 7.5 0 1 0 -15 0zM-6.12 578.89 a7.5 7.5 0 1 0 15 0 a7.5 7.5 0 1 0 -15 0zM188.74 91.39 a7.5 7.5 0 1 0 15 0 a7.5 7.5 0 1 0 -15 0zM253.69 128.89 a7.5 7.5 0 1 0 15 0 a7.5 7.5 0 1 0 -15 0zM253.69 203.89 a7.5 7.5 0 1 0 15 0 a7.5 7.5 0 1 0 -15 0zM188.74 241.39 a7.5 7.5 0 1 0 15 0 a7.5 7.5 0 1 0 -15 0zM188.74 541.39 a7.5 7.5 0 1 0 15 0 a7.5 7.5 0 1 0 -15 0zM253.69 578.89 a7.5 7.5 0 1 0 15 0 a7.5 7.5 0 1 0 -15 0zM253.69 653.89 a7.5 7.5 0 1 0 15 0 a7.5 7.5 0 1 0 -15 0zM188.74 691.39 a7.5 7.5 0 1 0 15 0 a7.5 7.5 0 1 0 -15 0zM253.69 -21.11 a7.5 7.5 0 1 0 15 0 a7.5 7.5 0 1 0 -15 0zM318.65 16.39 a7.5 7.5 0 1 0 15 0 a7.5 7.5 0 1 0 -15 0zM318.65 91.39 a7.5 7.5 0 1 0 15 0 a7.5 7.5 0 1 0 -15 0zM188.74 16.39 a7.5 7.5 0 1 0 15 0 a7.5 7.5 0 1 0 -15 0zM383.6 128.89 a7.5 7.5 0 1 0 15 0 a7.5 7.5 0 1 0 -15 0zM383.6 203.89 a7.5 7.5 0 1 0 15 0 a7.5 7.5 0 1 0 -15 0zM318.65 241.39 a7.5 7.5 0 1 0 15 0 a7.5 7.5 0 1 0 -15 0zM318.65 316.39 a7.5 7.5 0 1 0 15 0 a7.5 7.5 0 1 0 -15 0zM253.69 353.89 a7.5 7.5 0 1 0 15 0 a7.5 7.5 0 1 0 -15 0zM188.74 316.39 a7.5 7.5 0 1 0 15 0 a7.5 7.5 0 1 0 -15 0zM448.56 91.39 a7.5 7.5 0 1 0 15 0 a7.5 7.5 0 1 0 -15 0zM513.51 128.89 a7.5 7.5 0 1 0 15 0 a7.5 7.5 0 1 0 -15 0zM513.51 203.89 a7.5 7.5 0 1 0 15 0 a7.5 7.5 0 1 0 -15 0zM448.56 241.39 a7.5 7.5 0 1 0 15 0 a7.5 7.5 0 1 0 -15 0zM383.6 428.89 a7.5 7.5 0 1 0 15 0 a7.5 7.5 0 1 0 -15 0zM448.56 466.39 a7.5 7.5 0 1 0 15 0 a7.5 7.5 0 1 0 -15 0zM448.56 541.39 a7.5 7.5 0 1 0 15 0 a7.5 7.5 0 1 0 -15 0zM383.6 578.89 a7.5 7.5 0 1 0 15 0 a7.5 7.5 0 1 0 -15 0zM318.65 541.39 a7.5 7.5 0 1 0 15 0 a7.5 7.5 0 1 0 -15 0zM318.65 466.39 a7.5 7.5 0 1 0 15 0 a7.5 7.5 0 1 0 -15 0zM513.51 578.89 a7.5 7.5 0 1 0 15 0 a7.5 7.5 0 1 0 -15 0zM513.51 653.89 a7.5 7.5 0 1 0 15 0 a7.5 7.5 0 1 0 -15 0zM448.56 691.39 a7.5 7.5 0 1 0 15 0 a7.5 7.5 0 1 0 -15 0zM383.6 653.89 a7.5 7.5 0 1 0 15 0 a7.5 7.5 0 1 0 -15 0zM513.51 -21.11 a7.5 7.5 0 1 0 15 0 a7.5 7.5 0 1 0 -15 0zM578.46 16.39 a7.5 7.5 0 1 0 15 0 a7.5 7.5 0 1 0 -15 0zM578.46 91.39 a7.5 7.5 0 1 0 15 0 a7.5 7.5 0 1 0 -15 0zM448.56 16.39 a7.5 7.5 0 1 0 15 0 a7.5 7.5 0 1 0 -15 0zM643.42 128.89 a7.5 7.5 0 1 0 15 0 a7.5 7.5 0 1 0 -15 0zM643.42 203.89 a7.5 7.5 0 1 0 15 0 a7.5 7.5 0 1 0 -15 0zM578.46 241.39 a7.5 7.5 0 1 0 15 0 a7.5 7.5 0 1 0 -15 0zM578.46 316.39 a7.5 7.5 0 1 0 15 0 a7.5 7.5 0 1 0 -15 0zM513.51 353.89 a7.5 7.5 0 1 0 15 0 a7.5 7.5 0 1 0 -15 0zM448.56 316.39 a7.5 7.5 0 1 0 15 0 a7.5 7.5 0 1 0 -15 0zM513.51 428.89 a7.5 7.5 0 1 0 15 0 a7.5 7.5 0 1 0 -15 0zM578.46 466.39 a7.5 7.5 0 1 0 15 0 a7.5 7.5 0 1 0 -15 0zM578.46 541.39 a7.5 7.5 0 1 0 15 0 a7.5 7.5 0 1 0 -15 0zM643.42 578.89 a7.5 7.5 0 1 0 15 0 a7.5 7.5 0 1 0 -15 0zM643.42 653.89 a7.5 7.5 0 1 0 15 0 a7.5 7.5 0 1 0 -15 0zM578.46 691.39 a7.5 7.5 0 1 0 15 0 a7.5 7.5 0 1 0 -15 0zM643.42 -21.11 a7.5 7.5 0 1 0 15 0 a7.5 7.5 0 1 0 -15 0zM708.37 16.39 a7.5 7.5 0 1 0 15 0 a7.5 7.5 0 1 0 -15 0zM708.37 91.39 a7.5 7.5 0 1 0 15 0 a7.5 7.5 0 1 0 -15 0zM708.37 316.39 a7.5 7.5 0 1 0 15 0 a7.5 7.5 0 1 0 -15 0zM773.33 353.89 a7.5 7.5 0 1 0 15 0 a7.5 7.5 0 1 0 -15 0zM773.33 428.89 a7.5 7.5 0 1 0 15 0 a7.5 7.5 0 1 0 -15 0zM708.37 466.39 a7.5 7.5 0 1 0 15 0 a7.5 7.5 0 1 0 -15 0zM643.42 428.89 a7.5 7.5 0 1 0 15 0 a7.5 7.5 0 1 0 -15 0zM643.42 353.89 a7.5 7.5 0 1 0 15 0 a7.5 7.5 0 1 0 -15 0zM838.28 91.39 a7.5 7.5 0 1 0 15 0 a7.5 7.5 0 1 0 -15 0zM903.23 128.89 a7.5 7.5 0 1 0 15 0 a7.5 7.5 0 1 0 -15 0zM903.23 203.89 a7.5 7.5 0 1 0 15 0 a7.5 7.5 0 1 0 -15 0zM838.28 241.39 a7.5 7.5 0 1 0 15 0 a7.5 7.5 0 1 0 -15 0zM773.32 203.89 a7.5 7.5 0 1 0 15 0 a7.5 7.5 0 1 0 -15 0zM773.32 128.89 a7.5 7.5 0 1 0 15 0 a7.5 7.5 0 1 0 -15 0zM838.28 316.39 a7.5 7.5 0 1 0 15 0 a7.5 7.5 0 1 0 -15 0zM773.32 353.89 a7.5 7.5 0 1 0 15 0 a7.5 7.5 0 1 0 -15 0zM708.37 241.39 a7.5 7.5 0 1 0 15 0 a7.5 7.5 0 1 0 -15 0zM903.23 353.89 a7.5 7.5 0 1 0 15 0 a7.5 7.5 0 1 0 -15 0zM903.23 428.89 a7.5 7.5 0 1 0 15 0 a7.5 7.5 0 1 0 -15 0zM838.28 466.39 a7.5 7.5 0 1 0 15 0 a7.5 7.5 0 1 0 -15 0zM773.32 428.89 a7.5 7.5 0 1 0 15 0 a7.5 7.5 0 1 0 -15 0zM838.28 541.39 a7.5 7.5 0 1 0 15 0 a7.5 7.5 0 1 0 -15 0zM903.23 578.89 a7.5 7.5 0 1 0 15 0 a7.5 7.5 0 1 0 -15 0zM903.23 653.89 a7.5 7.5 0 1 0 15 0 a7.5 7.5 0 1 0 -15 0zM838.28 691.39 a7.5 7.5 0 1 0 15 0 a7.5 7.5 0 1 0 -15 0zM773.32 653.89 a7.5 7.5 0 1 0 15 0 a7.5 7.5 0 1 0 -15 0zM773.32 578.89 a7.5 7.5 0 1 0 15 0 a7.5 7.5 0 1 0 -15 0zM1033.14 203.89 a7.5 7.5 0 1 0 15 0 a7.5 7.5 0 1 0 -15 0zM1098.09 241.39 a7.5 7.5 0 1 0 15 0 a7.5 7.5 0 1 0 -15 0zM1098.09 316.39 a7.5 7.5 0 1 0 15 0 a7.5 7.5 0 1 0 -15 0zM1033.14 353.89 a7.5 7.5 0 1 0 15 0 a7.5 7.5 0 1 0 -15 0zM968.19 316.39 a7.5 7.5 0 1 0 15 0 a7.5 7.5 0 1 0 -15 0zM968.19 241.39 a7.5 7.5 0 1 0 15 0 a7.5 7.5 0 1 0 -15 0zM1163.05 353.89 a7.5 7.5 0 1 0 15 0 a7.5 7.5 0 1 0 -15 0zM1163.05 428.89 a7.5 7.5 0 1 0 15 0 a7.5 7.5 0 1 0 -15 0zM1098.09 466.39 a7.5 7.5 0 1 0 15 0 a7.5 7.5 0 1 0 -15 0zM1033.14 428.89 a7.5 7.5 0 1 0 15 0 a7.5 7.5 0 1 0 -15 0zM1163.05 -21.11 a7.5 7.5 0 1 0 15 0 a7.5 7.5 0 1 0 -15 0zM1228 16.39 a7.5 7.5 0 1 0 15 0 a7.5 7.5 0 1 0 -15 0zM1228 91.39 a7.5 7.5 0 1 0 15 0 a7.5 7.5 0 1 0 -15 0zM1163.05 128.89 a7.5 7.5 0 1 0 15 0 a7.5 7.5 0 1 0 -15 0zM1098.09 91.39 a7.5 7.5 0 1 0 15 0 a7.5 7.5 0 1 0 -15 0zM1098.09 16.39 a7.5 7.5 0 1 0 15 0 a7.5 7.5 0 1 0 -15 0zM1163.05 203.89 a7.5 7.5 0 1 0 15 0 a7.5 7.5 0 1 0 -15 0zM1228 241.39 a7.5 7.5 0 1 0 15 0 a7.5 7.5 0 1 0 -15 0zM1228 316.39 a7.5 7.5 0 1 0 15 0 a7.5 7.5 0 1 0 -15 0zM1292.95 353.89 a7.5 7.5 0 1 0 15 0 a7.5 7.5 0 1 0 -15 0zM1292.95 428.89 a7.5 7.5 0 1 0 15 0 a7.5 7.5 0 1 0 -15 0zM1228 466.39 a7.5 7.5 0 1 0 15 0 a7.5 7.5 0 1 0 -15 0zM1357.91 91.39 a7.5 7.5 0 1 0 15 0 a7.5 7.5 0 1 0 -15 0zM1422.86 128.89 a7.5 7.5 0 1 0 15 0 a7.5 7.5 0 1 0 -15 0zM1422.86 203.89 a7.5 7.5 0 1 0 15 0 a7.5 7.5 0 1 0 -15 0zM1357.91 241.39 a7.5 7.5 0 1 0 15 0 a7.5 7.5 0 1 0 -15 0zM1292.96 203.89 a7.5 7.5 0 1 0 15 0 a7.5 7.5 0 1 0 -15 0zM1292.96 128.89 a7.5 7.5 0 1 0 15 0 a7.5 7.5 0 1 0 -15 0zM1292.96 428.89 a7.5 7.5 0 1 0 15 0 a7.5 7.5 0 1 0 -15 0zM1357.91 466.39 a7.5 7.5 0 1 0 15 0 a7.5 7.5 0 1 0 -15 0zM1357.91 541.39 a7.5 7.5 0 1 0 15 0 a7.5 7.5 0 1 0 -15 0zM1292.96 578.89 a7.5 7.5 0 1 0 15 0 a7.5 7.5 0 1 0 -15 0zM1228 541.39 a7.5 7.5 0 1 0 15 0 a7.5 7.5 0 1 0 -15 0z" fill="rgba(8, 228, 29, 1)"></path><path d="M44.97 176.75L88.28 201.75L88.28 251.75L44.97 276.75L1.67 251.75L1.67 201.75zM44.97 326.75L88.28 351.75L88.28 401.75L44.97 426.75L1.67 401.75L1.67 351.75zM1.67 401.75L44.97 426.75L44.97 476.75L1.67 501.75L-41.63 476.75L-41.63 426.75zM88.28 401.75L131.58 426.75L131.58 476.75L88.28 501.75L44.97 476.75L44.97 426.75zM174.88 101.75L218.18 126.75L218.18 176.75L174.88 201.75L131.58 176.75L131.58 126.75zM174.88 401.75L218.18 426.75L218.18 476.75L174.88 501.75L131.58 476.75L131.58 426.75zM261.49 -48.25L304.79 -23.25L304.79 26.75L261.49 51.75L218.18 26.75L218.18 -23.25zM261.49 101.75L304.79 126.75L304.79 176.75L261.49 201.75L218.18 176.75L218.18 126.75zM261.49 401.75L304.79 426.75L304.79 476.75L261.49 501.75L218.18 476.75L218.18 426.75zM304.79 476.75L348.09 501.75L348.09 551.75L304.79 576.75L261.49 551.75L261.49 501.75zM391.39 476.75L434.7 501.75L434.7 551.75L391.39 576.75L348.09 551.75L348.09 501.75zM564.6 26.75L607.9 51.75L607.9 101.75L564.6 126.75L521.3 101.75L521.3 51.75zM737.81 26.75L781.12 51.75L781.12 101.75L737.81 126.75L694.51 101.75L694.51 51.75zM694.51 401.75L737.81 426.75L737.81 476.75L694.51 501.75L651.21 476.75L651.21 426.75zM737.81 476.75L781.12 501.75L781.12 551.75L737.81 576.75L694.51 551.75L694.51 501.75zM781.12 101.75L824.42 126.75L824.42 176.75L781.12 201.75L737.81 176.75L737.81 126.75zM781.12 251.75L824.42 276.75L824.42 326.75L781.12 351.75L737.81 326.75L737.81 276.75zM824.42 326.75L867.72 351.75L867.72 401.75L824.42 426.75L781.12 401.75L781.12 351.75zM781.12 401.75L824.42 426.75L824.42 476.75L781.12 501.75L737.81 476.75L737.81 426.75zM824.42 476.75L867.72 501.75L867.72 551.75L824.42 576.75L781.12 551.75L781.12 501.75zM911.02 26.75L954.33 51.75L954.33 101.75L911.02 126.75L867.72 101.75L867.72 51.75zM954.33 101.75L997.63 126.75L997.63 176.75L954.33 201.75L911.02 176.75L911.02 126.75zM1257.44 326.75L1300.75 351.75L1300.75 401.75L1257.44 426.75L1214.14 401.75L1214.14 351.75zM1257.44 476.75L1300.75 501.75L1300.75 551.75L1257.44 576.75L1214.14 551.75L1214.14 501.75zM1344.05 26.75L1387.35 51.75L1387.35 101.75L1344.05 126.75L1300.75 101.75L1300.75 51.75zM1344.05 176.75L1387.35 201.75L1387.35 251.75L1344.05 276.75L1300.75 251.75L1300.75 201.75zM1344.05 326.75L1387.35 351.75L1387.35 401.75L1344.05 426.75L1300.75 401.75L1300.75 351.75zM1300.75 401.75L1344.05 426.75L1344.05 476.75L1300.75 501.75L1257.44 476.75L1257.44 426.75zM1430.65 476.75L1473.96 501.75L1473.96 551.75L1430.65 576.75L1387.35 551.75L1387.35 501.75z" stroke="rgba(42, 212, 90, 0.93)" stroke-width="2"></path></g><defs><mask id="SvgjsMask1018"><rect width="1440" height="560" fill="#ffffff"></rect></mask></defs></svg>