<svg id="Layer_1" viewBox="0 0 512 512" xmlns="http://www.w3.org/2000/svg" data-name="Layer 1" width="300" height="300" version="1.1" xmlns:xlink="http://www.w3.org/1999/xlink" xmlns:svgjs="http://svgjs.dev/svgjs"><g width="100%" height="100%" transform="matrix(1,0,0,1,0,0)"><path d="m202.265 165.012a16.923 16.923 0 0 0 31.626 0 6.009 6.009 0 1 1 11.234 4.272 28.942 28.942 0 0 1 -54.094 0 6.009 6.009 0 0 1 11.234-4.272zm-52.134-52.318a26.108 26.108 0 1 1 26.108 26.136 26.137 26.137 0 0 1 -26.108-26.136zm12.02 0a14.088 14.088 0 1 0 14.088-14.088 14.118 14.118 0 0 0 -14.088 14.088zm71.659 0a26.108 26.108 0 1 1 26.107 26.136 26.137 26.137 0 0 1 -26.107-26.136zm12.02 0a14.088 14.088 0 1 0 14.087-14.088 14.118 14.118 0 0 0 -14.087 14.088zm193.223 309.215c-17.481 38.051-47.527 66.891-89.3 85.716l-8.563 3.856a6.009 6.009 0 0 1 -4.935 0l-8.56-3.855c-29.94-13.487-53.852-32.118-71.434-55.594l-1.64 2.442a20.225 20.225 0 0 1 -17.036 9.094h-39a20.225 20.225 0 0 1 -17.037-9.1l-12.425-18.486c-.21 1.908-.48 3.8-.771 5.66-1.376 8.891-7.6 17.829-17.087 24.517-7.724 5.449-16.387 8.438-24.062 8.438a26.507 26.507 0 0 1 -4.977-.454c-11.665-2.23-23.851-5.54-33.381-19.084l-20.33-28.82a44.48 44.48 0 0 1 43.985-69.471c1.342.232 2.66.529 3.959.876l-.278-.415c-29.01-10.481-45.6-25.62-49.3-45.012-5.106-26.763 13.986-59.186 58.329-99a126.882 126.882 0 0 1 -20.21-28.863h-3.625a46.645 46.645 0 0 1 -5.093-93.012 126.869 126.869 0 0 1 243.592 0 46.645 46.645 0 0 1 -5.093 93.012h-3.625a126.874 126.874 0 0 1 -20.213 28.863 354.2 354.2 0 0 1 25.857 25.568 6.011 6.011 0 0 1 5.547.9l12.586 9.524c25.652 19.48 49.311 27.861 70.318 24.92l21.54-3.032a6.01 6.01 0 0 1 6.819 5.371l2.1 21.657c4.633 47.991-.969 89.637-16.657 123.784zm-220.974-180.266a115.378 115.378 0 0 0 103.9-65.863 6.009 6.009 0 0 1 5.435-3.445h7.37a34.626 34.626 0 0 0 .363-69.25 6.01 6.01 0 0 1 -5.764-4.533 114.645 114.645 0 0 0 -91.717-84.872v18.171a19.588 19.588 0 0 1 -39.175 0 6.01 6.01 0 1 1 12.019 0 7.568 7.568 0 1 0 15.136 0v-19.571c-2.506-.164-5.026-.272-7.567-.272a114.68 114.68 0 0 0 -111.3 86.544 6.009 6.009 0 0 1 -5.764 4.533 34.626 34.626 0 0 0 .363 69.25h7.37a6.009 6.009 0 0 1 5.435 3.445 115.382 115.382 0 0 0 103.896 65.863zm-89.519 63.065v-19.866a6.01 6.01 0 0 1 12.02 0v18.965h80.657c.152-1.885.314-3.776.5-5.681l2.1-21.658a6.008 6.008 0 0 1 6.82-5.371l21.514 3.032c21 2.937 44.663-5.445 70.337-24.916l4.459-3.374c-7.03-7.7-15.275-15.806-24.638-24.2a127.747 127.747 0 0 1 -15.453 11.768 126.674 126.674 0 0 1 -153.046-11.774c-40.247 36.062-59.3 66.546-55.139 88.334 2.6 13.632 14.486 24.9 35.359 33.558v-19.196a20.558 20.558 0 0 1 14.51-19.621zm91.915 11.117h-85.9a8.513 8.513 0 0 0 -8.5 8.5v21.884h94.555a295.971 295.971 0 0 1 -.155-30.384zm-68.675 94.918-20.33-28.868a32.239 32.239 0 0 0 -21.021-13.263 33.186 33.186 0 0 0 -5.667-.49 32.524 32.524 0 0 0 -26.441 51.2l20.321 28.824c6.98 9.918 15.456 12.22 25.811 14.2 5.509 1.051 13.119-1.248 19.857-6 6.631-4.677 11.283-11.015 12.138-16.541 1.632-10.438 2.318-19.198-4.668-29.062zm97.129 30.636a166.93 166.93 0 0 1 -10.555-19.471c-8.714-18.972-14.31-40.266-16.771-63.677h-90.27l60.18 89.54a8.174 8.174 0 0 0 7.06 3.777h39a8.168 8.168 0 0 0 7.056-3.774zm194.812-142.1-1.493-15.409-15.329 2.158c-24.306 3.4-50.964-5.762-79.251-27.243l-8.951-6.775-8.958 6.78c-28.31 21.472-54.985 30.634-79.266 27.239l-15.306-2.158-1.492 15.41a297.343 297.343 0 0 0 -.765 51.653 6.052 6.052 0 0 1 .141 1.285c0 .079-.009.156-.012.234q4.173 49.558 27.49 84.952a5.985 5.985 0 0 1 1.008 1.512q24.988 36.935 71.068 57.747l6.093 2.744 6.094-2.744c75.034-33.809 108.319-100.219 98.932-197.382zm-8.786.828c8.994 93.031-22.555 156.46-93.771 188.524a6.007 6.007 0 0 1 -4.934 0c-71.2-32.06-102.763-95.488-93.8-188.523a6.008 6.008 0 0 1 6.817-5.374c26.684 3.748 55.556-5.982 85.817-28.914a6.009 6.009 0 0 1 7.26 0c30.258 22.93 59.115 32.661 85.79 28.914a6.009 6.009 0 0 1 6.818 5.373zm-11.43 7.193q-3.328.237-6.689.238c-25 0-51.195-9.867-78.116-29.445-29.334 21.333-57.817 31.14-84.83 29.207-6.6 84.088 21.191 139.511 84.83 169.239 63.649-29.727 91.434-85.152 84.805-169.239zm-35.282 59.18v20.807a6.01 6.01 0 0 1 -6.01 6.009h-27.1v27.1a6.009 6.009 0 0 1 -6.009 6.009h-20.806a6.01 6.01 0 0 1 -6.01-6.009v-27.096h-27.128a6.01 6.01 0 0 1 -6.01-6.009v-20.811a6.01 6.01 0 0 1 6.01-6.009h27.128v-27.128a6.009 6.009 0 0 1 6.01-6.009h20.806a6.009 6.009 0 0 1 6.009 6.009v27.128h27.1a6.01 6.01 0 0 1 6.01 6.009zm-12.02 6.01h-27.1a6.01 6.01 0 0 1 -6.01-6.01v-27.127h-8.786v27.127a6.01 6.01 0 0 1 -6.01 6.01h-27.127v8.787h27.128a6.01 6.01 0 0 1 6.01 6.01v27.1h8.786v-27.1a6.01 6.01 0 0 1 6.01-6.01h27.1z" fill="#00bf63" fill-opacity="1" data-original-color="#000000ff" stroke="none" stroke-opacity="1"/></g></svg>