<svg width="1440" height="560" viewBox="0 0 1440 560" fill="none" xmlns="http://www.w3.org/2000/svg">
<g clip-path="url(#clip0_44_2)">
<g clip-path="url(#clip1_44_2)">
<rect width="1440" height="560" fill="white"/>
<mask id="mask0_44_2" style="mask-type:luminance" maskUnits="userSpaceOnUse" x="0" y="0" width="1440" height="560">
<path d="M1440 0H0V560H1440V0Z" fill="white"/>
</mask>
<g mask="url(#mask0_44_2)">
<path d="M1440 0H0V560H1440V0Z" fill="#22C55E"/>
<path d="M131.29 128.89L66.3301 91.3899L1.38013 128.89V203.89L66.3301 241.39L131.29 203.89M131.29 128.89V203.89M131.29 128.89L196.24 91.3899M131.29 203.89L196.24 241.39M131.29 578.89L66.3301 541.39L1.38013 578.89V653.89L66.3301 691.39L131.29 653.89M131.29 578.89V653.89M131.29 578.89L196.24 541.39L261.19 578.89V653.89L196.24 691.39L131.29 653.89M196.24 91.3899L261.19 128.89M196.24 91.3899V16.3899L261.19 -21.1101L326.15 16.3899V91.3899M261.19 128.89V203.89M261.19 128.89L326.15 91.3899M261.19 203.89L196.24 241.39M261.19 203.89L326.15 241.39M196.24 241.39V316.39L261.19 353.89L326.15 316.39V241.39M326.15 91.3899L391.1 128.89M391.1 128.89V203.89M391.1 128.89L456.06 91.3899M391.1 203.89L326.15 241.39M391.1 203.89L456.06 241.39M456.06 91.3899L521.01 128.89M456.06 91.3899V16.3899L521.01 -21.1101L585.96 16.3899M521.01 128.89V203.89M521.01 128.89L585.96 91.3899M521.01 203.89L456.06 241.39M521.01 203.89L585.96 241.39M456.06 241.39V316.39L521.01 353.89L585.96 316.39V241.39M456.06 466.39L391.1 428.89L326.15 466.39V541.39L391.1 578.89M456.06 466.39V541.39M456.06 466.39L521.01 428.89L585.96 466.39V541.39M456.06 541.39L391.1 578.89M456.06 541.39L521.01 578.89M391.1 578.89V653.89L456.06 691.39L521.01 653.89M521.01 578.89V653.89M521.01 578.89L585.96 541.39M521.01 653.89L585.96 691.39L650.92 653.89V578.89L585.96 541.39M585.96 16.3899V91.3899M585.96 16.3899L650.92 -21.1101L715.87 16.3899V91.3899L650.92 128.89M585.96 91.3899L650.92 128.89M650.92 128.89V203.89L585.96 241.39M715.87 316.39L780.83 353.89V428.89L715.87 466.39L650.92 428.89V353.89L715.87 316.39ZM715.87 316.39L780.82 353.89M715.87 316.39V241.39L780.82 203.89M845.78 241.39L910.73 203.89V128.89L845.78 91.3899L780.82 128.89V203.89M845.78 241.39L780.82 203.89M845.78 241.39V316.39M845.78 316.39L780.82 353.89M845.78 316.39L910.73 353.89V428.89L845.78 466.39L780.82 428.89V353.89M1105.59 241.39L1040.64 203.89L975.69 241.39V316.39L1040.64 353.89M1105.59 241.39V316.39M1105.59 241.39L1170.55 203.89L1235.5 241.39V316.39M1105.59 316.39L1040.64 353.89M1105.59 316.39L1170.55 353.89M1040.64 353.89V428.89L1105.59 466.39L1170.55 428.89M1170.55 353.89V428.89M1170.55 353.89L1235.5 316.39M1170.55 428.89L1235.5 466.39M1235.5 316.39L1300.45 353.89V428.89L1235.5 466.39M1235.5 466.39V541.39L1300.46 578.89L1365.41 541.39V466.39L1300.46 428.89L1235.5 466.39ZM845.78 541.39L910.73 578.89V653.89L845.78 691.39L780.82 653.89V578.89L845.78 541.39ZM1170.55 -21.1101L1235.5 16.3899V91.3899L1170.55 128.89L1105.59 91.3899V16.3899L1170.55 -21.1101ZM1365.41 91.3899L1430.36 128.89V203.89L1365.41 241.39L1300.46 203.89V128.89L1365.41 91.3899Z" stroke="#42E72B" stroke-width="2"/>
<path d="M58.8301 91.3899C58.8301 93.379 59.6203 95.2867 61.0268 96.6932C62.4333 98.0997 64.341 98.8899 66.3301 98.8899C68.3193 98.8899 70.2269 98.0997 71.6334 96.6932C73.04 95.2867 73.8301 93.379 73.8301 91.3899C73.8301 89.4008 73.04 87.4931 71.6334 86.0866C70.2269 84.6801 68.3193 83.8899 66.3301 83.8899C64.341 83.8899 62.4333 84.6801 61.0268 86.0866C59.6203 87.4931 58.8301 89.4008 58.8301 91.3899ZM123.79 128.89C123.79 130.879 124.58 132.787 125.987 134.193C127.393 135.6 129.301 136.39 131.29 136.39C133.279 136.39 135.187 135.6 136.593 134.193C138 132.787 138.79 130.879 138.79 128.89C138.79 126.901 138 124.993 136.593 123.587C135.187 122.18 133.279 121.39 131.29 121.39C129.301 121.39 127.393 122.18 125.987 123.587C124.58 124.993 123.79 126.901 123.79 128.89ZM123.79 203.89C123.79 205.879 124.58 207.787 125.987 209.193C127.393 210.6 129.301 211.39 131.29 211.39C133.279 211.39 135.187 210.6 136.593 209.193C138 207.787 138.79 205.879 138.79 203.89C138.79 201.901 138 199.993 136.593 198.587C135.187 197.18 133.279 196.39 131.29 196.39C129.301 196.39 127.393 197.18 125.987 198.587C124.58 199.993 123.79 201.901 123.79 203.89ZM58.8301 241.39C58.8301 243.379 59.6203 245.287 61.0268 246.693C62.4333 248.1 64.341 248.89 66.3301 248.89C68.3193 248.89 70.2269 248.1 71.6334 246.693C73.04 245.287 73.8301 243.379 73.8301 241.39C73.8301 239.401 73.04 237.493 71.6334 236.087C70.2269 234.68 68.3193 233.89 66.3301 233.89C64.341 233.89 62.4333 234.68 61.0268 236.087C59.6203 237.493 58.8301 239.401 58.8301 241.39ZM-6.11987 203.89C-6.11987 205.879 -5.3297 207.787 -3.92317 209.193C-2.51665 210.6 -0.608997 211.39 1.38013 211.39C3.36925 211.39 5.2769 210.6 6.68343 209.193C8.08995 207.787 8.88013 205.879 8.88013 203.89C8.88013 201.901 8.08995 199.993 6.68343 198.587C5.2769 197.18 3.36925 196.39 1.38013 196.39C-0.608997 196.39 -2.51665 197.18 -3.92317 198.587C-5.3297 199.993 -6.11987 201.901 -6.11987 203.89ZM-6.11987 128.89C-6.11987 130.879 -5.3297 132.787 -3.92317 134.193C-2.51665 135.6 -0.608997 136.39 1.38013 136.39C3.36925 136.39 5.2769 135.6 6.68343 134.193C8.08995 132.787 8.88013 130.879 8.88013 128.89C8.88013 126.901 8.08995 124.993 6.68343 123.587C5.2769 122.18 3.36925 121.39 1.38013 121.39C-0.608997 121.39 -2.51665 122.18 -3.92317 123.587C-5.3297 124.993 -6.11987 126.901 -6.11987 128.89ZM58.8301 541.39C58.8301 543.379 59.6203 545.287 61.0268 546.693C62.4333 548.1 64.341 548.89 66.3301 548.89C68.3193 548.89 70.2269 548.1 71.6334 546.693C73.04 545.287 73.8301 543.379 73.8301 541.39C73.8301 539.401 73.04 537.493 71.6334 536.087C70.2269 534.68 68.3193 533.89 66.3301 533.89C64.341 533.89 62.4333 534.68 61.0268 536.087C59.6203 537.493 58.8301 539.401 58.8301 541.39ZM123.79 578.89C123.79 580.879 124.58 582.787 125.987 584.193C127.393 585.6 129.301 586.39 131.29 586.39C133.279 586.39 135.187 585.6 136.593 584.193C138 582.787 138.79 580.879 138.79 578.89C138.79 576.901 138 574.993 136.593 573.587C135.187 572.18 133.279 571.39 131.29 571.39C129.301 571.39 127.393 572.18 125.987 573.587C124.58 574.993 123.79 576.901 123.79 578.89ZM123.79 653.89C123.79 655.879 124.58 657.787 125.987 659.193C127.393 660.6 129.301 661.39 131.29 661.39C133.279 661.39 135.187 660.6 136.593 659.193C138 657.787 138.79 655.879 138.79 653.89C138.79 651.901 138 649.993 136.593 648.587C135.187 647.18 133.279 646.39 131.29 646.39C129.301 646.39 127.393 647.18 125.987 648.587C124.58 649.993 123.79 651.901 123.79 653.89ZM58.8301 691.39C58.8301 693.379 59.6203 695.287 61.0268 696.693C62.4333 698.1 64.341 698.89 66.3301 698.89C68.3193 698.89 70.2269 698.1 71.6334 696.693C73.04 695.287 73.8301 693.379 73.8301 691.39C73.8301 689.401 73.04 687.493 71.6334 686.087C70.2269 684.68 68.3193 683.89 66.3301 683.89C64.341 683.89 62.4333 684.68 61.0268 686.087C59.6203 687.493 58.8301 689.401 58.8301 691.39ZM-6.11987 653.89C-6.11987 655.879 -5.3297 657.787 -3.92317 659.193C-2.51665 660.6 -0.608997 661.39 1.38013 661.39C3.36925 661.39 5.2769 660.6 6.68343 659.193C8.08995 657.787 8.88013 655.879 8.88013 653.89C8.88013 651.901 8.08995 649.993 6.68343 648.587C5.2769 647.18 3.36925 646.39 1.38013 646.39C-0.608997 646.39 -2.51665 647.18 -3.92317 648.587C-5.3297 649.993 -6.11987 651.901 -6.11987 653.89ZM-6.11987 578.89C-6.11987 580.879 -5.3297 582.787 -3.92317 584.193C-2.51665 585.6 -0.608997 586.39 1.38013 586.39C3.36925 586.39 5.2769 585.6 6.68343 584.193C8.08995 582.787 8.88013 580.879 8.88013 578.89C8.88013 576.901 8.08995 574.993 6.68343 573.587C5.2769 572.18 3.36925 571.39 1.38013 571.39C-0.608997 571.39 -2.51665 572.18 -3.92317 573.587C-5.3297 574.993 -6.11987 576.901 -6.11987 578.89ZM188.74 91.3899C188.74 93.379 189.53 95.2867 190.937 96.6932C192.343 98.0997 194.251 98.8899 196.24 98.8899C198.229 98.8899 200.137 98.0997 201.543 96.6932C202.95 95.2867 203.74 93.379 203.74 91.3899C203.74 89.4008 202.95 87.4931 201.543 86.0866C200.137 84.6801 198.229 83.8899 196.24 83.8899C194.251 83.8899 192.343 84.6801 190.937 86.0866C189.53 87.4931 188.74 89.4008 188.74 91.3899ZM253.69 128.89C253.69 130.879 254.48 132.787 255.887 134.193C257.293 135.6 259.201 136.39 261.19 136.39C263.179 136.39 265.087 135.6 266.493 134.193C267.9 132.787 268.69 130.879 268.69 128.89C268.69 126.901 267.9 124.993 266.493 123.587C265.087 122.18 263.179 121.39 261.19 121.39C259.201 121.39 257.293 122.18 255.887 123.587C254.48 124.993 253.69 126.901 253.69 128.89ZM253.69 203.89C253.69 205.879 254.48 207.787 255.887 209.193C257.293 210.6 259.201 211.39 261.19 211.39C263.179 211.39 265.087 210.6 266.493 209.193C267.9 207.787 268.69 205.879 268.69 203.89C268.69 201.901 267.9 199.993 266.493 198.587C265.087 197.18 263.179 196.39 261.19 196.39C259.201 196.39 257.293 197.18 255.887 198.587C254.48 199.993 253.69 201.901 253.69 203.89ZM188.74 241.39C188.74 243.379 189.53 245.287 190.937 246.693C192.343 248.1 194.251 248.89 196.24 248.89C198.229 248.89 200.137 248.1 201.543 246.693C202.95 245.287 203.74 243.379 203.74 241.39C203.74 239.401 202.95 237.493 201.543 236.087C200.137 234.68 198.229 233.89 196.24 233.89C194.251 233.89 192.343 234.68 190.937 236.087C189.53 237.493 188.74 239.401 188.74 241.39ZM188.74 541.39C188.74 543.379 189.53 545.287 190.937 546.693C192.343 548.1 194.251 548.89 196.24 548.89C198.229 548.89 200.137 548.1 201.543 546.693C202.95 545.287 203.74 543.379 203.74 541.39C203.74 539.401 202.95 537.493 201.543 536.087C200.137 534.68 198.229 533.89 196.24 533.89C194.251 533.89 192.343 534.68 190.937 536.087C189.53 537.493 188.74 539.401 188.74 541.39ZM253.69 578.89C253.69 580.879 254.48 582.787 255.887 584.193C257.293 585.6 259.201 586.39 261.19 586.39C263.179 586.39 265.087 585.6 266.493 584.193C267.9 582.787 268.69 580.879 268.69 578.89C268.69 576.901 267.9 574.993 266.493 573.587C265.087 572.18 263.179 571.39 261.19 571.39C259.201 571.39 257.293 572.18 255.887 573.587C254.48 574.993 253.69 576.901 253.69 578.89ZM253.69 653.89C253.69 655.879 254.48 657.787 255.887 659.193C257.293 660.6 259.201 661.39 261.19 661.39C263.179 661.39 265.087 660.6 266.493 659.193C267.9 657.787 268.69 655.879 268.69 653.89C268.69 651.901 267.9 649.993 266.493 648.587C265.087 647.18 263.179 646.39 261.19 646.39C259.201 646.39 257.293 647.18 255.887 648.587C254.48 649.993 253.69 651.901 253.69 653.89ZM188.74 691.39C188.74 693.379 189.53 695.287 190.937 696.693C192.343 698.1 194.251 698.89 196.24 698.89C198.229 698.89 200.137 698.1 201.543 696.693C202.95 695.287 203.74 693.379 203.74 691.39C203.74 689.401 202.95 687.493 201.543 686.087C200.137 684.68 198.229 683.89 196.24 683.89C194.251 683.89 192.343 684.68 190.937 686.087C189.53 687.493 188.74 689.401 188.74 691.39ZM253.69 -21.1101C253.69 -19.121 254.48 -17.2133 255.887 -15.8068C257.293 -14.4003 259.201 -13.6101 261.19 -13.6101C263.179 -13.6101 265.087 -14.4003 266.493 -15.8068C267.9 -17.2133 268.69 -19.121 268.69 -21.1101C268.69 -23.0992 267.9 -25.0069 266.493 -26.4134C265.087 -27.8199 263.179 -28.6101 261.19 -28.6101C259.201 -28.6101 257.293 -27.8199 255.887 -26.4134C254.48 -25.0069 253.69 -23.0992 253.69 -21.1101ZM318.65 16.3899C318.65 18.379 319.44 20.2867 320.847 21.6932C322.253 23.0997 324.161 23.8899 326.15 23.8899C328.139 23.8899 330.047 23.0997 331.453 21.6932C332.86 20.2867 333.65 18.379 333.65 16.3899C333.65 14.4008 332.86 12.4931 331.453 11.0866C330.047 9.68007 328.139 8.88989 326.15 8.88989C324.161 8.88989 322.253 9.68007 320.847 11.0866C319.44 12.4931 318.65 14.4008 318.65 16.3899ZM318.65 91.3899C318.65 93.379 319.44 95.2867 320.847 96.6932C322.253 98.0997 324.161 98.8899 326.15 98.8899C328.139 98.8899 330.047 98.0997 331.453 96.6932C332.86 95.2867 333.65 93.379 333.65 91.3899C333.65 89.4008 332.86 87.4931 331.453 86.0866C330.047 84.6801 328.139 83.8899 326.15 83.8899C324.161 83.8899 322.253 84.6801 320.847 86.0866C319.44 87.4931 318.65 89.4008 318.65 91.3899ZM188.74 16.3899C188.74 18.379 189.53 20.2867 190.937 21.6932C192.343 23.0997 194.251 23.8899 196.24 23.8899C198.229 23.8899 200.137 23.0997 201.543 21.6932C202.95 20.2867 203.74 18.379 203.74 16.3899C203.74 14.4008 202.95 12.4931 201.543 11.0866C200.137 9.68007 198.229 8.88989 196.24 8.88989C194.251 8.88989 192.343 9.68007 190.937 11.0866C189.53 12.4931 188.74 14.4008 188.74 16.3899ZM383.6 128.89C383.6 130.879 384.39 132.787 385.797 134.193C387.203 135.6 389.111 136.39 391.1 136.39C393.089 136.39 394.997 135.6 396.403 134.193C397.81 132.787 398.6 130.879 398.6 128.89C398.6 126.901 397.81 124.993 396.403 123.587C394.997 122.18 393.089 121.39 391.1 121.39C389.111 121.39 387.203 122.18 385.797 123.587C384.39 124.993 383.6 126.901 383.6 128.89ZM383.6 203.89C383.6 205.879 384.39 207.787 385.797 209.193C387.203 210.6 389.111 211.39 391.1 211.39C393.089 211.39 394.997 210.6 396.403 209.193C397.81 207.787 398.6 205.879 398.6 203.89C398.6 201.901 397.81 199.993 396.403 198.587C394.997 197.18 393.089 196.39 391.1 196.39C389.111 196.39 387.203 197.18 385.797 198.587C384.39 199.993 383.6 201.901 383.6 203.89ZM318.65 241.39C318.65 243.379 319.44 245.287 320.847 246.693C322.253 248.1 324.161 248.89 326.15 248.89C328.139 248.89 330.047 248.1 331.453 246.693C332.86 245.287 333.65 243.379 333.65 241.39C333.65 239.401 332.86 237.493 331.453 236.087C330.047 234.68 328.139 233.89 326.15 233.89C324.161 233.89 322.253 234.68 320.847 236.087C319.44 237.493 318.65 239.401 318.65 241.39ZM318.65 316.39C318.65 318.379 319.44 320.287 320.847 321.693C322.253 323.1 324.161 323.89 326.15 323.89C328.139 323.89 330.047 323.1 331.453 321.693C332.86 320.287 333.65 318.379 333.65 316.39C333.65 314.401 332.86 312.493 331.453 311.087C330.047 309.68 328.139 308.89 326.15 308.89C324.161 308.89 322.253 309.68 320.847 311.087C319.44 312.493 318.65 314.401 318.65 316.39ZM253.69 353.89C253.69 355.879 254.48 357.787 255.887 359.193C257.293 360.6 259.201 361.39 261.19 361.39C263.179 361.39 265.087 360.6 266.493 359.193C267.9 357.787 268.69 355.879 268.69 353.89C268.69 351.901 267.9 349.993 266.493 348.587C265.087 347.18 263.179 346.39 261.19 346.39C259.201 346.39 257.293 347.18 255.887 348.587C254.48 349.993 253.69 351.901 253.69 353.89ZM188.74 316.39C188.74 318.379 189.53 320.287 190.937 321.693C192.343 323.1 194.251 323.89 196.24 323.89C198.229 323.89 200.137 323.1 201.543 321.693C202.95 320.287 203.74 318.379 203.74 316.39C203.74 314.401 202.95 312.493 201.543 311.087C200.137 309.68 198.229 308.89 196.24 308.89C194.251 308.89 192.343 309.68 190.937 311.087C189.53 312.493 188.74 314.401 188.74 316.39ZM448.56 91.3899C448.56 93.379 449.35 95.2867 450.757 96.6932C452.163 98.0997 454.071 98.8899 456.06 98.8899C458.049 98.8899 459.957 98.0997 461.363 96.6932C462.77 95.2867 463.56 93.379 463.56 91.3899C463.56 89.4008 462.77 87.4931 461.363 86.0866C459.957 84.6801 458.049 83.8899 456.06 83.8899C454.071 83.8899 452.163 84.6801 450.757 86.0866C449.35 87.4931 448.56 89.4008 448.56 91.3899ZM513.51 128.89C513.51 130.879 514.3 132.787 515.707 134.193C517.113 135.6 519.021 136.39 521.01 136.39C522.999 136.39 524.907 135.6 526.313 134.193C527.72 132.787 528.51 130.879 528.51 128.89C528.51 126.901 527.72 124.993 526.313 123.587C524.907 122.18 522.999 121.39 521.01 121.39C519.021 121.39 517.113 122.18 515.707 123.587C514.3 124.993 513.51 126.901 513.51 128.89ZM513.51 203.89C513.51 205.879 514.3 207.787 515.707 209.193C517.113 210.6 519.021 211.39 521.01 211.39C522.999 211.39 524.907 210.6 526.313 209.193C527.72 207.787 528.51 205.879 528.51 203.89C528.51 201.901 527.72 199.993 526.313 198.587C524.907 197.18 522.999 196.39 521.01 196.39C519.021 196.39 517.113 197.18 515.707 198.587C514.3 199.993 513.51 201.901 513.51 203.89ZM448.56 241.39C448.56 243.379 449.35 245.287 450.757 246.693C452.163 248.1 454.071 248.89 456.06 248.89C458.049 248.89 459.957 248.1 461.363 246.693C462.77 245.287 463.56 243.379 463.56 241.39C463.56 239.401 462.77 237.493 461.363 236.087C459.957 234.68 458.049 233.89 456.06 233.89C454.071 233.89 452.163 234.68 450.757 236.087C449.35 237.493 448.56 239.401 448.56 241.39ZM383.6 428.89C383.6 430.879 384.39 432.787 385.797 434.193C387.203 435.6 389.111 436.39 391.1 436.39C393.089 436.39 394.997 435.6 396.403 434.193C397.81 432.787 398.6 430.879 398.6 428.89C398.6 426.901 397.81 424.993 396.403 423.587C394.997 422.18 393.089 421.39 391.1 421.39C389.111 421.39 387.203 422.18 385.797 423.587C384.39 424.993 383.6 426.901 383.6 428.89ZM448.56 466.39C448.56 468.379 449.35 470.287 450.757 471.693C452.163 473.1 454.071 473.89 456.06 473.89C458.049 473.89 459.957 473.1 461.363 471.693C462.77 470.287 463.56 468.379 463.56 466.39C463.56 464.401 462.77 462.493 461.363 461.087C459.957 459.68 458.049 458.89 456.06 458.89C454.071 458.89 452.163 459.68 450.757 461.087C449.35 462.493 448.56 464.401 448.56 466.39ZM448.56 541.39C448.56 543.379 449.35 545.287 450.757 546.693C452.163 548.1 454.071 548.89 456.06 548.89C458.049 548.89 459.957 548.1 461.363 546.693C462.77 545.287 463.56 543.379 463.56 541.39C463.56 539.401 462.77 537.493 461.363 536.087C459.957 534.68 458.049 533.89 456.06 533.89C454.071 533.89 452.163 534.68 450.757 536.087C449.35 537.493 448.56 539.401 448.56 541.39ZM383.6 578.89C383.6 580.879 384.39 582.787 385.797 584.193C387.203 585.6 389.111 586.39 391.1 586.39C393.089 586.39 394.997 585.6 396.403 584.193C397.81 582.787 398.6 580.879 398.6 578.89C398.6 576.901 397.81 574.993 396.403 573.587C394.997 572.18 393.089 571.39 391.1 571.39C389.111 571.39 387.203 572.18 385.797 573.587C384.39 574.993 383.6 576.901 383.6 578.89ZM318.65 541.39C318.65 543.379 319.44 545.287 320.847 546.693C322.253 548.1 324.161 548.89 326.15 548.89C328.139 548.89 330.047 548.1 331.453 546.693C332.86 545.287 333.65 543.379 333.65 541.39C333.65 539.401 332.86 537.493 331.453 536.087C330.047 534.68 328.139 533.89 326.15 533.89C324.161 533.89 322.253 534.68 320.847 536.087C319.44 537.493 318.65 539.401 318.65 541.39ZM318.65 466.39C318.65 468.379 319.44 470.287 320.847 471.693C322.253 473.1 324.161 473.89 326.15 473.89C328.139 473.89 330.047 473.1 331.453 471.693C332.86 470.287 333.65 468.379 333.65 466.39C333.65 464.401 332.86 462.493 331.453 461.087C330.047 459.68 328.139 458.89 326.15 458.89C324.161 458.89 322.253 459.68 320.847 461.087C319.44 462.493 318.65 464.401 318.65 466.39ZM513.51 578.89C513.51 580.879 514.3 582.787 515.707 584.193C517.113 585.6 519.021 586.39 521.01 586.39C522.999 586.39 524.907 585.6 526.313 584.193C527.72 582.787 528.51 580.879 528.51 578.89C528.51 576.901 527.72 574.993 526.313 573.587C524.907 572.18 522.999 571.39 521.01 571.39C519.021 571.39 517.113 572.18 515.707 573.587C514.3 574.993 513.51 576.901 513.51 578.89ZM513.51 653.89C513.51 655.879 514.3 657.787 515.707 659.193C517.113 660.6 519.021 661.39 521.01 661.39C522.999 661.39 524.907 660.6 526.313 659.193C527.72 657.787 528.51 655.879 528.51 653.89C528.51 651.901 527.72 649.993 526.313 648.587C524.907 647.18 522.999 646.39 521.01 646.39C519.021 646.39 517.113 647.18 515.707 648.587C514.3 649.993 513.51 651.901 513.51 653.89ZM448.56 691.39C448.56 693.379 449.35 695.287 450.757 696.693C452.163 698.1 454.071 698.89 456.06 698.89C458.049 698.89 459.957 698.1 461.363 696.693C462.77 695.287 463.56 693.379 463.56 691.39C463.56 689.401 462.77 687.493 461.363 686.087C459.957 684.68 458.049 683.89 456.06 683.89C454.071 683.89 452.163 684.68 450.757 686.087C449.35 687.493 448.56 689.401 448.56 691.39ZM383.6 653.89C383.6 655.879 384.39 657.787 385.797 659.193C387.203 660.6 389.111 661.39 391.1 661.39C393.089 661.39 394.997 660.6 396.403 659.193C397.81 657.787 398.6 655.879 398.6 653.89C398.6 651.901 397.81 649.993 396.403 648.587C394.997 647.18 393.089 646.39 391.1 646.39C389.111 646.39 387.203 647.18 385.797 648.587C384.39 649.993 383.6 651.901 383.6 653.89ZM513.51 -21.1101C513.51 -19.121 514.3 -17.2133 515.707 -15.8068C517.113 -14.4003 519.021 -13.6101 521.01 -13.6101C522.999 -13.6101 524.907 -14.4003 526.313 -15.8068C527.72 -17.2133 528.51 -19.121 528.51 -21.1101C528.51 -23.0992 527.72 -25.0069 526.313 -26.4134C524.907 -27.8199 522.999 -28.6101 521.01 -28.6101C519.021 -28.6101 517.113 -27.8199 515.707 -26.4134C514.3 -25.0069 513.51 -23.0992 513.51 -21.1101ZM578.46 16.3899C578.46 18.379 579.25 20.2867 580.657 21.6932C582.063 23.0997 583.971 23.8899 585.96 23.8899C587.949 23.8899 589.857 23.0997 591.263 21.6932C592.67 20.2867 593.46 18.379 593.46 16.3899C593.46 14.4008 592.67 12.4931 591.263 11.0866C589.857 9.68007 587.949 8.88989 585.96 8.88989C583.971 8.88989 582.063 9.68007 580.657 11.0866C579.25 12.4931 578.46 14.4008 578.46 16.3899ZM578.46 91.3899C578.46 93.379 579.25 95.2867 580.657 96.6932C582.063 98.0997 583.971 98.8899 585.96 98.8899C587.949 98.8899 589.857 98.0997 591.263 96.6932C592.67 95.2867 593.46 93.379 593.46 91.3899C593.46 89.4008 592.67 87.4931 591.263 86.0866C589.857 84.6801 587.949 83.8899 585.96 83.8899C583.971 83.8899 582.063 84.6801 580.657 86.0866C579.25 87.4931 578.46 89.4008 578.46 91.3899ZM448.56 16.3899C448.56 18.379 449.35 20.2867 450.757 21.6932C452.163 23.0997 454.071 23.8899 456.06 23.8899C458.049 23.8899 459.957 23.0997 461.363 21.6932C462.77 20.2867 463.56 18.379 463.56 16.3899C463.56 14.4008 462.77 12.4931 461.363 11.0866C459.957 9.68007 458.049 8.88989 456.06 8.88989C454.071 8.88989 452.163 9.68007 450.757 11.0866C449.35 12.4931 448.56 14.4008 448.56 16.3899ZM643.42 128.89C643.42 130.879 644.21 132.787 645.617 134.193C647.023 135.6 648.931 136.39 650.92 136.39C652.909 136.39 654.817 135.6 656.223 134.193C657.63 132.787 658.42 130.879 658.42 128.89C658.42 126.901 657.63 124.993 656.223 123.587C654.817 122.18 652.909 121.39 650.92 121.39C648.931 121.39 647.023 122.18 645.617 123.587C644.21 124.993 643.42 126.901 643.42 128.89ZM643.42 203.89C643.42 205.879 644.21 207.787 645.617 209.193C647.023 210.6 648.931 211.39 650.92 211.39C652.909 211.39 654.817 210.6 656.223 209.193C657.63 207.787 658.42 205.879 658.42 203.89C658.42 201.901 657.63 199.993 656.223 198.587C654.817 197.18 652.909 196.39 650.92 196.39C648.931 196.39 647.023 197.18 645.617 198.587C644.21 199.993 643.42 201.901 643.42 203.89ZM578.46 241.39C578.46 243.379 579.25 245.287 580.657 246.693C582.063 248.1 583.971 248.89 585.96 248.89C587.949 248.89 589.857 248.1 591.263 246.693C592.67 245.287 593.46 243.379 593.46 241.39C593.46 239.401 592.67 237.493 591.263 236.087C589.857 234.68 587.949 233.89 585.96 233.89C583.971 233.89 582.063 234.68 580.657 236.087C579.25 237.493 578.46 239.401 578.46 241.39ZM578.46 316.39C578.46 318.379 579.25 320.287 580.657 321.693C582.063 323.1 583.971 323.89 585.96 323.89C587.949 323.89 589.857 323.1 591.263 321.693C592.67 320.287 593.46 318.379 593.46 316.39C593.46 314.401 592.67 312.493 591.263 311.087C589.857 309.68 587.949 308.89 585.96 308.89C583.971 308.89 582.063 309.68 580.657 311.087C579.25 312.493 578.46 314.401 578.46 316.39ZM513.51 353.89C513.51 355.879 514.3 357.787 515.707 359.193C517.113 360.6 519.021 361.39 521.01 361.39C522.999 361.39 524.907 360.6 526.313 359.193C527.72 357.787 528.51 355.879 528.51 353.89C528.51 351.901 527.72 349.993 526.313 348.587C524.907 347.18 522.999 346.39 521.01 346.39C519.021 346.39 517.113 347.18 515.707 348.587C514.3 349.993 513.51 351.901 513.51 353.89ZM448.56 316.39C448.56 318.379 449.35 320.287 450.757 321.693C452.163 323.1 454.071 323.89 456.06 323.89C458.049 323.89 459.957 323.1 461.363 321.693C462.77 320.287 463.56 318.379 463.56 316.39C463.56 314.401 462.77 312.493 461.363 311.087C459.957 309.68 458.049 308.89 456.06 308.89C454.071 308.89 452.163 309.68 450.757 311.087C449.35 312.493 448.56 314.401 448.56 316.39ZM513.51 428.89C513.51 430.879 514.3 432.787 515.707 434.193C517.113 435.6 519.021 436.39 521.01 436.39C522.999 436.39 524.907 435.6 526.313 434.193C527.72 432.787 528.51 430.879 528.51 428.89C528.51 426.901 527.72 424.993 526.313 423.587C524.907 422.18 522.999 421.39 521.01 421.39C519.021 421.39 517.113 422.18 515.707 423.587C514.3 424.993 513.51 426.901 513.51 428.89ZM578.46 466.39C578.46 468.379 579.25 470.287 580.657 471.693C582.063 473.1 583.971 473.89 585.96 473.89C587.949 473.89 589.857 473.1 591.263 471.693C592.67 470.287 593.46 468.379 593.46 466.39C593.46 464.401 592.67 462.493 591.263 461.087C589.857 459.68 587.949 458.89 585.96 458.89C583.971 458.89 582.063 459.68 580.657 461.087C579.25 462.493 578.46 464.401 578.46 466.39ZM578.46 541.39C578.46 543.379 579.25 545.287 580.657 546.693C582.063 548.1 583.971 548.89 585.96 548.89C587.949 548.89 589.857 548.1 591.263 546.693C592.67 545.287 593.46 543.379 593.46 541.39C593.46 539.401 592.67 537.493 591.263 536.087C589.857 534.68 587.949 533.89 585.96 533.89C583.971 533.89 582.063 534.68 580.657 536.087C579.25 537.493 578.46 539.401 578.46 541.39ZM643.42 578.89C643.42 580.879 644.21 582.787 645.617 584.193C647.023 585.6 648.931 586.39 650.92 586.39C652.909 586.39 654.817 585.6 656.223 584.193C657.63 582.787 658.42 580.879 658.42 578.89C658.42 576.901 657.63 574.993 656.223 573.587C654.817 572.18 652.909 571.39 650.92 571.39C648.931 571.39 647.023 572.18 645.617 573.587C644.21 574.993 643.42 576.901 643.42 578.89ZM643.42 653.89C643.42 655.879 644.21 657.787 645.617 659.193C647.023 660.6 648.931 661.39 650.92 661.39C652.909 661.39 654.817 660.6 656.223 659.193C657.63 657.787 658.42 655.879 658.42 653.89C658.42 651.901 657.63 649.993 656.223 648.587C654.817 647.18 652.909 646.39 650.92 646.39C648.931 646.39 647.023 647.18 645.617 648.587C644.21 649.993 643.42 651.901 643.42 653.89ZM578.46 691.39C578.46 693.379 579.25 695.287 580.657 696.693C582.063 698.1 583.971 698.89 585.96 698.89C587.949 698.89 589.857 698.1 591.263 696.693C592.67 695.287 593.46 693.379 593.46 691.39C593.46 689.401 592.67 687.493 591.263 686.087C589.857 684.68 587.949 683.89 585.96 683.89C583.971 683.89 582.063 684.68 580.657 686.087C579.25 687.493 578.46 689.401 578.46 691.39ZM643.42 -21.1101C643.42 -19.121 644.21 -17.2133 645.617 -15.8068C647.023 -14.4003 648.931 -13.6101 650.92 -13.6101C652.909 -13.6101 654.817 -14.4003 656.223 -15.8068C657.63 -17.2133 658.42 -19.121 658.42 -21.1101C658.42 -23.0992 657.63 -25.0069 656.223 -26.4134C654.817 -27.8199 652.909 -28.6101 650.92 -28.6101C648.931 -28.6101 647.023 -27.8199 645.617 -26.4134C644.21 -25.0069 643.42 -23.0992 643.42 -21.1101ZM708.37 16.3899C708.37 18.379 709.16 20.2867 710.567 21.6932C711.973 23.0997 713.881 23.8899 715.87 23.8899C717.859 23.8899 719.767 23.0997 721.173 21.6932C722.58 20.2867 723.37 18.379 723.37 16.3899C723.37 14.4008 722.58 12.4931 721.173 11.0866C719.767 9.68007 717.859 8.88989 715.87 8.88989C713.881 8.88989 711.973 9.68007 710.567 11.0866C709.16 12.4931 708.37 14.4008 708.37 16.3899ZM708.37 91.3899C708.37 93.379 709.16 95.2867 710.567 96.6932C711.973 98.0997 713.881 98.8899 715.87 98.8899C717.859 98.8899 719.767 98.0997 721.173 96.6932C722.58 95.2867 723.37 93.379 723.37 91.3899C723.37 89.4008 722.58 87.4931 721.173 86.0866C719.767 84.6801 717.859 83.8899 715.87 83.8899C713.881 83.8899 711.973 84.6801 710.567 86.0866C709.16 87.4931 708.37 89.4008 708.37 91.3899ZM708.37 316.39C708.37 318.379 709.16 320.287 710.567 321.693C711.973 323.1 713.881 323.89 715.87 323.89C717.859 323.89 719.767 323.1 721.173 321.693C722.58 320.287 723.37 318.379 723.37 316.39C723.37 314.401 722.58 312.493 721.173 311.087C719.767 309.68 717.859 308.89 715.87 308.89C713.881 308.89 711.973 309.68 710.567 311.087C709.16 312.493 708.37 314.401 708.37 316.39ZM773.33 353.89C773.33 355.879 774.12 357.787 775.527 359.193C776.933 360.6 778.841 361.39 780.83 361.39C782.819 361.39 784.727 360.6 786.133 359.193C787.54 357.787 788.33 355.879 788.33 353.89C788.33 351.901 787.54 349.993 786.133 348.587C784.727 347.18 782.819 346.39 780.83 346.39C778.841 346.39 776.933 347.18 775.527 348.587C774.12 349.993 773.33 351.901 773.33 353.89ZM773.33 428.89C773.33 430.879 774.12 432.787 775.527 434.193C776.933 435.6 778.841 436.39 780.83 436.39C782.819 436.39 784.727 435.6 786.133 434.193C787.54 432.787 788.33 430.879 788.33 428.89C788.33 426.901 787.54 424.993 786.133 423.587C784.727 422.18 782.819 421.39 780.83 421.39C778.841 421.39 776.933 422.18 775.527 423.587C774.12 424.993 773.33 426.901 773.33 428.89ZM708.37 466.39C708.37 468.379 709.16 470.287 710.567 471.693C711.973 473.1 713.881 473.89 715.87 473.89C717.859 473.89 719.767 473.1 721.173 471.693C722.58 470.287 723.37 468.379 723.37 466.39C723.37 464.401 722.58 462.493 721.173 461.087C719.767 459.68 717.859 458.89 715.87 458.89C713.881 458.89 711.973 459.68 710.567 461.087C709.16 462.493 708.37 464.401 708.37 466.39ZM643.42 428.89C643.42 430.879 644.21 432.787 645.617 434.193C647.023 435.6 648.931 436.39 650.92 436.39C652.909 436.39 654.817 435.6 656.223 434.193C657.63 432.787 658.42 430.879 658.42 428.89C658.42 426.901 657.63 424.993 656.223 423.587C654.817 422.18 652.909 421.39 650.92 421.39C648.931 421.39 647.023 422.18 645.617 423.587C644.21 424.993 643.42 426.901 643.42 428.89ZM643.42 353.89C643.42 355.879 644.21 357.787 645.617 359.193C647.023 360.6 648.931 361.39 650.92 361.39C652.909 361.39 654.817 360.6 656.223 359.193C657.63 357.787 658.42 355.879 658.42 353.89C658.42 351.901 657.63 349.993 656.223 348.587C654.817 347.18 652.909 346.39 650.92 346.39C648.931 346.39 647.023 347.18 645.617 348.587C644.21 349.993 643.42 351.901 643.42 353.89ZM838.28 91.3899C838.28 93.379 839.07 95.2867 840.477 96.6932C841.883 98.0997 843.791 98.8899 845.78 98.8899C847.769 98.8899 849.677 98.0997 851.083 96.6932C852.49 95.2867 853.28 93.379 853.28 91.3899C853.28 89.4008 852.49 87.4931 851.083 86.0866C849.677 84.6801 847.769 83.8899 845.78 83.8899C843.791 83.8899 841.883 84.6801 840.477 86.0866C839.07 87.4931 838.28 89.4008 838.28 91.3899ZM903.23 128.89C903.23 130.879 904.02 132.787 905.427 134.193C906.833 135.6 908.741 136.39 910.73 136.39C912.719 136.39 914.627 135.6 916.033 134.193C917.44 132.787 918.23 130.879 918.23 128.89C918.23 126.901 917.44 124.993 916.033 123.587C914.627 122.18 912.719 121.39 910.73 121.39C908.741 121.39 906.833 122.18 905.427 123.587C904.02 124.993 903.23 126.901 903.23 128.89ZM903.23 203.89C903.23 205.879 904.02 207.787 905.427 209.193C906.833 210.6 908.741 211.39 910.73 211.39C912.719 211.39 914.627 210.6 916.033 209.193C917.44 207.787 918.23 205.879 918.23 203.89C918.23 201.901 917.44 199.993 916.033 198.587C914.627 197.18 912.719 196.39 910.73 196.39C908.741 196.39 906.833 197.18 905.427 198.587C904.02 199.993 903.23 201.901 903.23 203.89ZM838.28 241.39C838.28 243.379 839.07 245.287 840.477 246.693C841.883 248.1 843.791 248.89 845.78 248.89C847.769 248.89 849.677 248.1 851.083 246.693C852.49 245.287 853.28 243.379 853.28 241.39C853.28 239.401 852.49 237.493 851.083 236.087C849.677 234.68 847.769 233.89 845.78 233.89C843.791 233.89 841.883 234.68 840.477 236.087C839.07 237.493 838.28 239.401 838.28 241.39ZM773.32 203.89C773.32 205.879 774.11 207.787 775.517 209.193C776.923 210.6 778.831 211.39 780.82 211.39C782.809 211.39 784.717 210.6 786.123 209.193C787.53 207.787 788.32 205.879 788.32 203.89C788.32 201.901 787.53 199.993 786.123 198.587C784.717 197.18 782.809 196.39 780.82 196.39C778.831 196.39 776.923 197.18 775.517 198.587C774.11 199.993 773.32 201.901 773.32 203.89ZM773.32 128.89C773.32 130.879 774.11 132.787 775.517 134.193C776.923 135.6 778.831 136.39 780.82 136.39C782.809 136.39 784.717 135.6 786.123 134.193C787.53 132.787 788.32 130.879 788.32 128.89C788.32 126.901 787.53 124.993 786.123 123.587C784.717 122.18 782.809 121.39 780.82 121.39C778.831 121.39 776.923 122.18 775.517 123.587C774.11 124.993 773.32 126.901 773.32 128.89ZM838.28 316.39C838.28 318.379 839.07 320.287 840.477 321.693C841.883 323.1 843.791 323.89 845.78 323.89C847.769 323.89 849.677 323.1 851.083 321.693C852.49 320.287 853.28 318.379 853.28 316.39C853.28 314.401 852.49 312.493 851.083 311.087C849.677 309.68 847.769 308.89 845.78 308.89C843.791 308.89 841.883 309.68 840.477 311.087C839.07 312.493 838.28 314.401 838.28 316.39ZM773.32 353.89C773.32 355.879 774.11 357.787 775.517 359.193C776.923 360.6 778.831 361.39 780.82 361.39C782.809 361.39 784.717 360.6 786.123 359.193C787.53 357.787 788.32 355.879 788.32 353.89C788.32 351.901 787.53 349.993 786.123 348.587C784.717 347.18 782.809 346.39 780.82 346.39C778.831 346.39 776.923 347.18 775.517 348.587C774.11 349.993 773.32 351.901 773.32 353.89ZM708.37 241.39C708.37 243.379 709.16 245.287 710.567 246.693C711.973 248.1 713.881 248.89 715.87 248.89C717.859 248.89 719.767 248.1 721.173 246.693C722.58 245.287 723.37 243.379 723.37 241.39C723.37 239.401 722.58 237.493 721.173 236.087C719.767 234.68 717.859 233.89 715.87 233.89C713.881 233.89 711.973 234.68 710.567 236.087C709.16 237.493 708.37 239.401 708.37 241.39ZM903.23 353.89C903.23 355.879 904.02 357.787 905.427 359.193C906.833 360.6 908.741 361.39 910.73 361.39C912.719 361.39 914.627 360.6 916.033 359.193C917.44 357.787 918.23 355.879 918.23 353.89C918.23 351.901 917.44 349.993 916.033 348.587C914.627 347.18 912.719 346.39 910.73 346.39C908.741 346.39 906.833 347.18 905.427 348.587C904.02 349.993 903.23 351.901 903.23 353.89ZM903.23 428.89C903.23 430.879 904.02 432.787 905.427 434.193C906.833 435.6 908.741 436.39 910.73 436.39C912.719 436.39 914.627 435.6 916.033 434.193C917.44 432.787 918.23 430.879 918.23 428.89C918.23 426.901 917.44 424.993 916.033 423.587C914.627 422.18 912.719 421.39 910.73 421.39C908.741 421.39 906.833 422.18 905.427 423.587C904.02 424.993 903.23 426.901 903.23 428.89ZM838.28 466.39C838.28 468.379 839.07 470.287 840.477 471.693C841.883 473.1 843.791 473.89 845.78 473.89C847.769 473.89 849.677 473.1 851.083 471.693C852.49 470.287 853.28 468.379 853.28 466.39C853.28 464.401 852.49 462.493 851.083 461.087C849.677 459.68 847.769 458.89 845.78 458.89C843.791 458.89 841.883 459.68 840.477 461.087C839.07 462.493 838.28 464.401 838.28 466.39ZM773.32 428.89C773.32 430.879 774.11 432.787 775.517 434.193C776.923 435.6 778.831 436.39 780.82 436.39C782.809 436.39 784.717 435.6 786.123 434.193C787.53 432.787 788.32 430.879 788.32 428.89C788.32 426.901 787.53 424.993 786.123 423.587C784.717 422.18 782.809 421.39 780.82 421.39C778.831 421.39 776.923 422.18 775.517 423.587C774.11 424.993 773.32 426.901 773.32 428.89ZM838.28 541.39C838.28 543.379 839.07 545.287 840.477 546.693C841.883 548.1 843.791 548.89 845.78 548.89C847.769 548.89 849.677 548.1 851.083 546.693C852.49 545.287 853.28 543.379 853.28 541.39C853.28 539.401 852.49 537.493 851.083 536.087C849.677 534.68 847.769 533.89 845.78 533.89C843.791 533.89 841.883 534.68 840.477 536.087C839.07 537.493 838.28 539.401 838.28 541.39ZM903.23 578.89C903.23 580.879 904.02 582.787 905.427 584.193C906.833 585.6 908.741 586.39 910.73 586.39C912.719 586.39 914.627 585.6 916.033 584.193C917.44 582.787 918.23 580.879 918.23 578.89C918.23 576.901 917.44 574.993 916.033 573.587C914.627 572.18 912.719 571.39 910.73 571.39C908.741 571.39 906.833 572.18 905.427 573.587C904.02 574.993 903.23 576.901 903.23 578.89ZM903.23 653.89C903.23 655.879 904.02 657.787 905.427 659.193C906.833 660.6 908.741 661.39 910.73 661.39C912.719 661.39 914.627 660.6 916.033 659.193C917.44 657.787 918.23 655.879 918.23 653.89C918.23 651.901 917.44 649.993 916.033 648.587C914.627 647.18 912.719 646.39 910.73 646.39C908.741 646.39 906.833 647.18 905.427 648.587C904.02 649.993 903.23 651.901 903.23 653.89ZM838.28 691.39C838.28 693.379 839.07 695.287 840.477 696.693C841.883 698.1 843.791 698.89 845.78 698.89C847.769 698.89 849.677 698.1 851.083 696.693C852.49 695.287 853.28 693.379 853.28 691.39C853.28 689.401 852.49 687.493 851.083 686.087C849.677 684.68 847.769 683.89 845.78 683.89C843.791 683.89 841.883 684.68 840.477 686.087C839.07 687.493 838.28 689.401 838.28 691.39ZM773.32 653.89C773.32 655.879 774.11 657.787 775.517 659.193C776.923 660.6 778.831 661.39 780.82 661.39C782.809 661.39 784.717 660.6 786.123 659.193C787.53 657.787 788.32 655.879 788.32 653.89C788.32 651.901 787.53 649.993 786.123 648.587C784.717 647.18 782.809 646.39 780.82 646.39C778.831 646.39 776.923 647.18 775.517 648.587C774.11 649.993 773.32 651.901 773.32 653.89ZM773.32 578.89C773.32 580.879 774.11 582.787 775.517 584.193C776.923 585.6 778.831 586.39 780.82 586.39C782.809 586.39 784.717 585.6 786.123 584.193C787.53 582.787 788.32 580.879 788.32 578.89C788.32 576.901 787.53 574.993 786.123 573.587C784.717 572.18 782.809 571.39 780.82 571.39C778.831 571.39 776.923 572.18 775.517 573.587C774.11 574.993 773.32 576.901 773.32 578.89ZM1033.14 203.89C1033.14 205.879 1033.93 207.787 1035.34 209.193C1036.74 210.6 1038.65 211.39 1040.64 211.39C1042.63 211.39 1044.54 210.6 1045.94 209.193C1047.35 207.787 1048.14 205.879 1048.14 203.89C1048.14 201.901 1047.35 199.993 1045.94 198.587C1044.54 197.18 1042.63 196.39 1040.64 196.39C1038.65 196.39 1036.74 197.18 1035.34 198.587C1033.93 199.993 1033.14 201.901 1033.14 203.89ZM1098.09 241.39C1098.09 243.379 1098.88 245.287 1100.29 246.693C1101.69 248.1 1103.6 248.89 1105.59 248.89C1107.58 248.89 1109.49 248.1 1110.89 246.693C1112.3 245.287 1113.09 243.379 1113.09 241.39C1113.09 239.401 1112.3 237.493 1110.89 236.087C1109.49 234.68 1107.58 233.89 1105.59 233.89C1103.6 233.89 1101.69 234.68 1100.29 236.087C1098.88 237.493 1098.09 239.401 1098.09 241.39ZM1098.09 316.39C1098.09 318.379 1098.88 320.287 1100.29 321.693C1101.69 323.1 1103.6 323.89 1105.59 323.89C1107.58 323.89 1109.49 323.1 1110.89 321.693C1112.3 320.287 1113.09 318.379 1113.09 316.39C1113.09 314.401 1112.3 312.493 1110.89 311.087C1109.49 309.68 1107.58 308.89 1105.59 308.89C1103.6 308.89 1101.69 309.68 1100.29 311.087C1098.88 312.493 1098.09 314.401 1098.09 316.39ZM1033.14 353.89C1033.14 355.879 1033.93 357.787 1035.34 359.193C1036.74 360.6 1038.65 361.39 1040.64 361.39C1042.63 361.39 1044.54 360.6 1045.94 359.193C1047.35 357.787 1048.14 355.879 1048.14 353.89C1048.14 351.901 1047.35 349.993 1045.94 348.587C1044.54 347.18 1042.63 346.39 1040.64 346.39C1038.65 346.39 1036.74 347.18 1035.34 348.587C1033.93 349.993 1033.14 351.901 1033.14 353.89ZM968.19 316.39C968.19 318.379 968.98 320.287 970.387 321.693C971.793 323.1 973.701 323.89 975.69 323.89C977.679 323.89 979.587 323.1 980.993 321.693C982.4 320.287 983.19 318.379 983.19 316.39C983.19 314.401 982.4 312.493 980.993 311.087C979.587 309.68 977.679 308.89 975.69 308.89C973.701 308.89 971.793 309.68 970.387 311.087C968.98 312.493 968.19 314.401 968.19 316.39ZM968.19 241.39C968.19 243.379 968.98 245.287 970.387 246.693C971.793 248.1 973.701 248.89 975.69 248.89C977.679 248.89 979.587 248.1 980.993 246.693C982.4 245.287 983.19 243.379 983.19 241.39C983.19 239.401 982.4 237.493 980.993 236.087C979.587 234.68 977.679 233.89 975.69 233.89C973.701 233.89 971.793 234.68 970.387 236.087C968.98 237.493 968.19 239.401 968.19 241.39ZM1163.05 353.89C1163.05 355.879 1163.84 357.787 1165.25 359.193C1166.65 360.6 1168.56 361.39 1170.55 361.39C1172.54 361.39 1174.45 360.6 1175.85 359.193C1177.26 357.787 1178.05 355.879 1178.05 353.89C1178.05 351.901 1177.26 349.993 1175.85 348.587C1174.45 347.18 1172.54 346.39 1170.55 346.39C1168.56 346.39 1166.65 347.18 1165.25 348.587C1163.84 349.993 1163.05 351.901 1163.05 353.89ZM1163.05 428.89C1163.05 430.879 1163.84 432.787 1165.25 434.193C1166.65 435.6 1168.56 436.39 1170.55 436.39C1172.54 436.39 1174.45 435.6 1175.85 434.193C1177.26 432.787 1178.05 430.879 1178.05 428.89C1178.05 426.901 1177.26 424.993 1175.85 423.587C1174.45 422.18 1172.54 421.39 1170.55 421.39C1168.56 421.39 1166.65 422.18 1165.25 423.587C1163.84 424.993 1163.05 426.901 1163.05 428.89ZM1098.09 466.39C1098.09 468.379 1098.88 470.287 1100.29 471.693C1101.69 473.1 1103.6 473.89 1105.59 473.89C1107.58 473.89 1109.49 473.1 1110.89 471.693C1112.3 470.287 1113.09 468.379 1113.09 466.39C1113.09 464.401 1112.3 462.493 1110.89 461.087C1109.49 459.68 1107.58 458.89 1105.59 458.89C1103.6 458.89 1101.69 459.68 1100.29 461.087C1098.88 462.493 1098.09 464.401 1098.09 466.39ZM1033.14 428.89C1033.14 430.879 1033.93 432.787 1035.34 434.193C1036.74 435.6 1038.65 436.39 1040.64 436.39C1042.63 436.39 1044.54 435.6 1045.94 434.193C1047.35 432.787 1048.14 430.879 1048.14 428.89C1048.14 426.901 1047.35 424.993 1045.94 423.587C1044.54 422.18 1042.63 421.39 1040.64 421.39C1038.65 421.39 1036.74 422.18 1035.34 423.587C1033.93 424.993 1033.14 426.901 1033.14 428.89ZM1163.05 -21.1101C1163.05 -19.121 1163.84 -17.2133 1165.25 -15.8068C1166.65 -14.4003 1168.56 -13.6101 1170.55 -13.6101C1172.54 -13.6101 1174.45 -14.4003 1175.85 -15.8068C1177.26 -17.2133 1178.05 -19.121 1178.05 -21.1101C1178.05 -23.0992 1177.26 -25.0069 1175.85 -26.4134C1174.45 -27.8199 1172.54 -28.6101 1170.55 -28.6101C1168.56 -28.6101 1166.65 -27.8199 1165.25 -26.4134C1163.84 -25.0069 1163.05 -23.0992 1163.05 -21.1101ZM1228 16.3899C1228 18.379 1228.79 20.2867 1230.2 21.6932C1231.6 23.0997 1233.51 23.8899 1235.5 23.8899C1237.49 23.8899 1239.4 23.0997 1240.8 21.6932C1242.21 20.2867 1243 18.379 1243 16.3899C1243 14.4008 1242.21 12.4931 1240.8 11.0866C1239.4 9.68007 1237.49 8.88989 1235.5 8.88989C1233.51 8.88989 1231.6 9.68007 1230.2 11.0866C1228.79 12.4931 1228 14.4008 1228 16.3899ZM1228 91.3899C1228 93.379 1228.79 95.2867 1230.2 96.6932C1231.6 98.0997 1233.51 98.8899 1235.5 98.8899C1237.49 98.8899 1239.4 98.0997 1240.8 96.6932C1242.21 95.2867 1243 93.379 1243 91.3899C1243 89.4008 1242.21 87.4931 1240.8 86.0866C1239.4 84.6801 1237.49 83.8899 1235.5 83.8899C1233.51 83.8899 1231.6 84.6801 1230.2 86.0866C1228.79 87.4931 1228 89.4008 1228 91.3899ZM1163.05 128.89C1163.05 130.879 1163.84 132.787 1165.25 134.193C1166.65 135.6 1168.56 136.39 1170.55 136.39C1172.54 136.39 1174.45 135.6 1175.85 134.193C1177.26 132.787 1178.05 130.879 1178.05 128.89C1178.05 126.901 1177.26 124.993 1175.85 123.587C1174.45 122.18 1172.54 121.39 1170.55 121.39C1168.56 121.39 1166.65 122.18 1165.25 123.587C1163.84 124.993 1163.05 126.901 1163.05 128.89ZM1098.09 91.3899C1098.09 93.379 1098.88 95.2867 1100.29 96.6932C1101.69 98.0997 1103.6 98.8899 1105.59 98.8899C1107.58 98.8899 1109.49 98.0997 1110.89 96.6932C1112.3 95.2867 1113.09 93.379 1113.09 91.3899C1113.09 89.4008 1112.3 87.4931 1110.89 86.0866C1109.49 84.6801 1107.58 83.8899 1105.59 83.8899C1103.6 83.8899 1101.69 84.6801 1100.29 86.0866C1098.88 87.4931 1098.09 89.4008 1098.09 91.3899ZM1098.09 16.3899C1098.09 18.379 1098.88 20.2867 1100.29 21.6932C1101.69 23.0997 1103.6 23.8899 1105.59 23.8899C1107.58 23.8899 1109.49 23.0997 1110.89 21.6932C1112.3 20.2867 1113.09 18.379 1113.09 16.3899C1113.09 14.4008 1112.3 12.4931 1110.89 11.0866C1109.49 9.68007 1107.58 8.88989 1105.59 8.88989C1103.6 8.88989 1101.69 9.68007 1100.29 11.0866C1098.88 12.4931 1098.09 14.4008 1098.09 16.3899ZM1163.05 203.89C1163.05 205.879 1163.84 207.787 1165.25 209.193C1166.65 210.6 1168.56 211.39 1170.55 211.39C1172.54 211.39 1174.45 210.6 1175.85 209.193C1177.26 207.787 1178.05 205.879 1178.05 203.89C1178.05 201.901 1177.26 199.993 1175.85 198.587C1174.45 197.18 1172.54 196.39 1170.55 196.39C1168.56 196.39 1166.65 197.18 1165.25 198.587C1163.84 199.993 1163.05 201.901 1163.05 203.89ZM1228 241.39C1228 243.379 1228.79 245.287 1230.2 246.693C1231.6 248.1 1233.51 248.89 1235.5 248.89C1237.49 248.89 1239.4 248.1 1240.8 246.693C1242.21 245.287 1243 243.379 1243 241.39C1243 239.401 1242.21 237.493 1240.8 236.087C1239.4 234.68 1237.49 233.89 1235.5 233.89C1233.51 233.89 1231.6 234.68 1230.2 236.087C1228.79 237.493 1228 239.401 1228 241.39ZM1228 316.39C1228 318.379 1228.79 320.287 1230.2 321.693C1231.6 323.1 1233.51 323.89 1235.5 323.89C1237.49 323.89 1239.4 323.1 1240.8 321.693C1242.21 320.287 1243 318.379 1243 316.39C1243 314.401 1242.21 312.493 1240.8 311.087C1239.4 309.68 1237.49 308.89 1235.5 308.89C1233.51 308.89 1231.6 309.68 1230.2 311.087C1228.79 312.493 1228 314.401 1228 316.39ZM1292.95 353.89C1292.95 355.879 1293.74 357.787 1295.15 359.193C1296.55 360.6 1298.46 361.39 1300.45 361.39C1302.44 361.39 1304.35 360.6 1305.75 359.193C1307.16 357.787 1307.95 355.879 1307.95 353.89C1307.95 351.901 1307.16 349.993 1305.75 348.587C1304.35 347.18 1302.44 346.39 1300.45 346.39C1298.46 346.39 1296.55 347.18 1295.15 348.587C1293.74 349.993 1292.95 351.901 1292.95 353.89ZM1292.95 428.89C1292.95 430.879 1293.74 432.787 1295.15 434.193C1296.55 435.6 1298.46 436.39 1300.45 436.39C1302.44 436.39 1304.35 435.6 1305.75 434.193C1307.16 432.787 1307.95 430.879 1307.95 428.89C1307.95 426.901 1307.16 424.993 1305.75 423.587C1304.35 422.18 1302.44 421.39 1300.45 421.39C1298.46 421.39 1296.55 422.18 1295.15 423.587C1293.74 424.993 1292.95 426.901 1292.95 428.89ZM1228 466.39C1228 468.379 1228.79 470.287 1230.2 471.693C1231.6 473.1 1233.51 473.89 1235.5 473.89C1237.49 473.89 1239.4 473.1 1240.8 471.693C1242.21 470.287 1243 468.379 1243 466.39C1243 464.401 1242.21 462.493 1240.8 461.087C1239.4 459.68 1237.49 458.89 1235.5 458.89C1233.51 458.89 1231.6 459.68 1230.2 461.087C1228.79 462.493 1228 464.401 1228 466.39ZM1357.91 91.3899C1357.91 93.379 1358.7 95.2867 1360.11 96.6932C1361.51 98.0997 1363.42 98.8899 1365.41 98.8899C1367.4 98.8899 1369.31 98.0997 1370.71 96.6932C1372.12 95.2867 1372.91 93.379 1372.91 91.3899C1372.91 89.4008 1372.12 87.4931 1370.71 86.0866C1369.31 84.6801 1367.4 83.8899 1365.41 83.8899C1363.42 83.8899 1361.51 84.6801 1360.11 86.0866C1358.7 87.4931 1357.91 89.4008 1357.91 91.3899ZM1422.86 128.89C1422.86 130.879 1423.65 132.787 1425.06 134.193C1426.46 135.6 1428.37 136.39 1430.36 136.39C1432.35 136.39 1434.26 135.6 1435.66 134.193C1437.07 132.787 1437.86 130.879 1437.86 128.89C1437.86 126.901 1437.07 124.993 1435.66 123.587C1434.26 122.18 1432.35 121.39 1430.36 121.39C1428.37 121.39 1426.46 122.18 1425.06 123.587C1423.65 124.993 1422.86 126.901 1422.86 128.89ZM1422.86 203.89C1422.86 205.879 1423.65 207.787 1425.06 209.193C1426.46 210.6 1428.37 211.39 1430.36 211.39C1432.35 211.39 1434.26 210.6 1435.66 209.193C1437.07 207.787 1437.86 205.879 1437.86 203.89C1437.86 201.901 1437.07 199.993 1435.66 198.587C1434.26 197.18 1432.35 196.39 1430.36 196.39C1428.37 196.39 1426.46 197.18 1425.06 198.587C1423.65 199.993 1422.86 201.901 1422.86 203.89ZM1357.91 241.39C1357.91 243.379 1358.7 245.287 1360.11 246.693C1361.51 248.1 1363.42 248.89 1365.41 248.89C1367.4 248.89 1369.31 248.1 1370.71 246.693C1372.12 245.287 1372.91 243.379 1372.91 241.39C1372.91 239.401 1372.12 237.493 1370.71 236.087C1369.31 234.68 1367.4 233.89 1365.41 233.89C1363.42 233.89 1361.51 234.68 1360.11 236.087C1358.7 237.493 1357.91 239.401 1357.91 241.39ZM1292.96 203.89C1292.96 205.879 1293.75 207.787 1295.16 209.193C1296.56 210.6 1298.47 211.39 1300.46 211.39C1302.45 211.39 1304.36 210.6 1305.76 209.193C1307.17 207.787 1307.96 205.879 1307.96 203.89C1307.96 201.901 1307.17 199.993 1305.76 198.587C1304.36 197.18 1302.45 196.39 1300.46 196.39C1298.47 196.39 1296.56 197.18 1295.16 198.587C1293.75 199.993 1292.96 201.901 1292.96 203.89ZM1292.96 128.89C1292.96 130.879 1293.75 132.787 1295.16 134.193C1296.56 135.6 1298.47 136.39 1300.46 136.39C1302.45 136.39 1304.36 135.6 1305.76 134.193C1307.17 132.787 1307.96 130.879 1307.96 128.89C1307.96 126.901 1307.17 124.993 1305.76 123.587C1304.36 122.18 1302.45 121.39 1300.46 121.39C1298.47 121.39 1296.56 122.18 1295.16 123.587C1293.75 124.993 1292.96 126.901 1292.96 128.89ZM1292.96 428.89C1292.96 430.879 1293.75 432.787 1295.16 434.193C1296.56 435.6 1298.47 436.39 1300.46 436.39C1302.45 436.39 1304.36 435.6 1305.76 434.193C1307.17 432.787 1307.96 430.879 1307.96 428.89C1307.96 426.901 1307.17 424.993 1305.76 423.587C1304.36 422.18 1302.45 421.39 1300.46 421.39C1298.47 421.39 1296.56 422.18 1295.16 423.587C1293.75 424.993 1292.96 426.901 1292.96 428.89ZM1357.91 466.39C1357.91 468.379 1358.7 470.287 1360.11 471.693C1361.51 473.1 1363.42 473.89 1365.41 473.89C1367.4 473.89 1369.31 473.1 1370.71 471.693C1372.12 470.287 1372.91 468.379 1372.91 466.39C1372.91 464.401 1372.12 462.493 1370.71 461.087C1369.31 459.68 1367.4 458.89 1365.41 458.89C1363.42 458.89 1361.51 459.68 1360.11 461.087C1358.7 462.493 1357.91 464.401 1357.91 466.39ZM1357.91 541.39C1357.91 543.379 1358.7 545.287 1360.11 546.693C1361.51 548.1 1363.42 548.89 1365.41 548.89C1367.4 548.89 1369.31 548.1 1370.71 546.693C1372.12 545.287 1372.91 543.379 1372.91 541.39C1372.91 539.401 1372.12 537.493 1370.71 536.087C1369.31 534.68 1367.4 533.89 1365.41 533.89C1363.42 533.89 1361.51 534.68 1360.11 536.087C1358.7 537.493 1357.91 539.401 1357.91 541.39ZM1292.96 578.89C1292.96 580.879 1293.75 582.787 1295.16 584.193C1296.56 585.6 1298.47 586.39 1300.46 586.39C1302.45 586.39 1304.36 585.6 1305.76 584.193C1307.17 582.787 1307.96 580.879 1307.96 578.89C1307.96 576.901 1307.17 574.993 1305.76 573.587C1304.36 572.18 1302.45 571.39 1300.46 571.39C1298.47 571.39 1296.56 572.18 1295.16 573.587C1293.75 574.993 1292.96 576.901 1292.96 578.89ZM1228 541.39C1228 543.379 1228.79 545.287 1230.2 546.693C1231.6 548.1 1233.51 548.89 1235.5 548.89C1237.49 548.89 1239.4 548.1 1240.8 546.693C1242.21 545.287 1243 543.379 1243 541.39C1243 539.401 1242.21 537.493 1240.8 536.087C1239.4 534.68 1237.49 533.89 1235.5 533.89C1233.51 533.89 1231.6 534.68 1230.2 536.087C1228.79 537.493 1228 539.401 1228 541.39Z" fill="#42E72B"/>
<path d="M88.2801 401.75V351.75L44.9701 326.75L1.67012 351.75V401.75M88.2801 401.75L44.9701 426.75M88.2801 401.75L131.58 426.75M44.9701 426.75L1.67012 401.75M44.9701 426.75V476.75M1.67012 401.75L-41.6299 426.75V476.75L1.67012 501.75L44.9701 476.75M44.9701 476.75L88.2801 501.75L131.58 476.75M131.58 426.75V476.75M131.58 426.75L174.88 401.75L218.18 426.75M131.58 476.75L174.88 501.75L218.18 476.75M218.18 126.75L174.88 101.75L131.58 126.75V176.75L174.88 201.75L218.18 176.75M218.18 126.75V176.75M218.18 126.75L261.49 101.75L304.79 126.75V176.75L261.49 201.75L218.18 176.75M218.18 426.75V476.75M218.18 426.75L261.49 401.75L304.79 426.75V476.75M218.18 476.75L261.49 501.75M304.79 476.75L261.49 501.75M304.79 476.75L348.09 501.75M261.49 501.75V551.75L304.79 576.75L348.09 551.75M348.09 501.75V551.75M348.09 501.75L391.39 476.75L434.7 501.75V551.75L391.39 576.75L348.09 551.75M781.12 101.75V51.75L737.81 26.75L694.51 51.75V101.75L737.81 126.75M781.12 101.75L737.81 126.75M781.12 101.75L824.42 126.75V176.75L781.12 201.75L737.81 176.75V126.75M737.81 426.75L694.51 401.75L651.21 426.75V476.75L694.51 501.75M737.81 426.75V476.75M737.81 426.75L781.12 401.75M737.81 476.75L694.51 501.75M737.81 476.75L781.12 501.75M694.51 501.75V551.75L737.81 576.75L781.12 551.75M781.12 501.75V551.75M781.12 501.75L824.42 476.75M781.12 551.75L824.42 576.75L867.72 551.75V501.75L824.42 476.75M824.42 326.75V276.75L781.12 251.75L737.81 276.75V326.75L781.12 351.75M824.42 326.75L781.12 351.75M824.42 326.75L867.72 351.75V401.75L824.42 426.75M781.12 351.75V401.75M824.42 426.75L781.12 401.75M824.42 426.75V476.75M954.33 101.75V51.75L911.02 26.75L867.72 51.75V101.75L911.02 126.75M954.33 101.75L911.02 126.75M954.33 101.75L997.63 126.75V176.75L954.33 201.75L911.02 176.75V126.75M1300.75 351.75L1257.44 326.75L1214.14 351.75V401.75L1257.44 426.75M1300.75 351.75V401.75M1300.75 351.75L1344.05 326.75L1387.35 351.75V401.75L1344.05 426.75M1300.75 401.75L1257.44 426.75M1300.75 401.75L1344.05 426.75M1257.44 426.75V476.75M1257.44 476.75L1300.75 501.75M1257.44 476.75L1214.14 501.75V551.75L1257.44 576.75L1300.75 551.75V501.75M1300.75 501.75L1344.05 476.75V426.75M44.9701 176.75L88.2801 201.75V251.75L44.9701 276.75L1.67012 251.75V201.75L44.9701 176.75ZM261.49 -48.25L304.79 -23.25V26.75L261.49 51.75L218.18 26.75V-23.25L261.49 -48.25ZM564.6 26.75L607.9 51.75V101.75L564.6 126.75L521.3 101.75V51.75L564.6 26.75ZM1344.05 26.75L1387.35 51.75V101.75L1344.05 126.75L1300.75 101.75V51.75L1344.05 26.75ZM1344.05 176.75L1387.35 201.75V251.75L1344.05 276.75L1300.75 251.75V201.75L1344.05 176.75ZM1430.65 476.75L1473.96 501.75V551.75L1430.65 576.75L1387.35 551.75V501.75L1430.65 476.75Z" stroke="#25D24E" stroke-opacity="0.93" stroke-width="2"/>
</g>
<rect width="1440" height="560" fill="url(#paint0_linear_44_2)"/>
</g>
</g>
<defs>
<linearGradient id="paint0_linear_44_2" x1="-730.5" y1="-142.5" x2="1667" y2="590.5" gradientUnits="userSpaceOnUse">
<stop offset="0.0447506" stop-color="#14532D"/>
<stop offset="1" stop-color="#999999" stop-opacity="0"/>
</linearGradient>
<clipPath id="clip0_44_2">
<rect width="1440" height="560" fill="white"/>
</clipPath>
<clipPath id="clip1_44_2">
<rect width="1440" height="560" fill="white"/>
</clipPath>
</defs>
</svg>
